<svg width="15" height="14" viewBox="0 0 15 14" fill="none" xmlns="http://www.w3.org/2000/svg">
<path d="M3.75623 13.3223C2.92469 13.3223 2.24086 13.1677 1.70474 12.8586C1.16862 12.5494 0.769267 12.152 0.506678 11.6662C0.244088 11.1804 0.112793 10.6726 0.112793 10.1426C0.112793 9.83352 0.151087 9.54647 0.227676 9.2815C0.391795 8.68532 0.670796 8.13883 1.06468 7.64201C1.46951 7.13416 1.97827 6.7091 2.59098 6.36685C3.21463 6.0246 3.93129 5.80931 4.74094 5.72099C4.5987 5.56643 4.48382 5.35666 4.39629 5.09169C4.3197 4.82672 4.29235 4.47343 4.31423 4.03182C4.15011 3.84413 4.02976 3.63989 3.95317 3.41908C3.87658 3.19828 3.83829 2.97747 3.83829 2.75666C3.83829 2.33713 3.95864 1.93416 4.19935 1.54774C4.44005 1.15029 4.75188 0.846682 5.13482 0.636915C5.51777 0.427149 5.92259 0.322266 6.3493 0.322266C6.84166 0.322266 7.27383 0.46027 7.64584 0.736279C8.02878 1.01229 8.22025 1.3711 8.22025 1.81271C8.22025 1.93416 8.20384 2.0556 8.17102 2.17704C8.49925 2.26537 8.76184 2.41993 8.95879 2.64074C9.16667 2.86154 9.29249 3.08787 9.33626 3.31972C9.36908 3.46324 9.38549 3.59573 9.38549 3.71717C9.38549 4.23607 9.17761 4.64456 8.76184 4.94265C8.35702 5.2297 7.85919 5.37322 7.26836 5.37322C6.84166 5.37322 6.39853 5.29042 5.939 5.12481C5.67641 5.03649 5.44665 4.92609 5.2497 4.7936C5.05276 4.66112 4.88317 4.52312 4.74094 4.37959C4.73 4.42375 4.72453 4.46791 4.72453 4.51207C4.72453 4.5452 4.72453 4.58384 4.72453 4.628C4.72453 4.77152 4.74641 4.91505 4.79017 5.05857C4.84488 5.19106 4.91053 5.32906 4.98712 5.47258C5.009 5.51675 5.03635 5.55539 5.06917 5.58851C5.102 5.62163 5.12935 5.65475 5.15123 5.68787C5.40288 5.67683 5.66 5.67683 5.92259 5.68787C6.19612 5.69891 6.47512 5.72651 6.7596 5.77067C7.1863 5.83692 7.39966 5.99148 7.39966 6.23437C7.39966 6.34477 7.34495 6.43861 7.23554 6.5159C7.12613 6.58214 6.97842 6.61526 6.79242 6.61526C6.51889 6.61526 6.22895 6.56558 5.92259 6.46622C5.61624 6.36685 5.33724 6.22885 5.08559 6.0522C4.59323 6.14052 4.08446 6.30613 3.55928 6.54902C3.0341 6.7919 2.56363 7.13968 2.14786 7.59233C1.74304 8.03394 1.44762 8.61356 1.26162 9.33118C1.18503 9.60719 1.14674 9.89976 1.14674 10.2089C1.14674 10.7057 1.25615 11.1639 1.47498 11.5834C1.6938 12.0029 2.01657 12.3397 2.44328 12.5936C2.86999 12.8586 3.38969 12.9911 4.0024 12.9911C4.65888 12.9911 5.27159 12.8586 5.84053 12.5936C6.42042 12.3286 6.9073 11.9809 7.30119 11.5503C7.70601 11.1197 7.9686 10.6671 8.08896 10.1923C8.1546 9.90528 8.18743 9.65687 8.18743 9.44711C8.18743 8.92821 8.02331 8.56388 7.69507 8.35411C7.37778 8.13331 6.98936 8.0229 6.52983 8.0229C6.21253 8.0229 5.87883 8.06707 5.52871 8.15539C5.17859 8.24371 4.85035 8.35963 4.54399 8.50316C4.10635 8.71292 3.7617 8.99445 3.51005 9.34774C3.26934 9.68999 3.14899 10.0322 3.14899 10.3745C3.14899 10.7609 3.30216 11.0756 3.60852 11.3184C3.78358 11.462 4.00787 11.5337 4.2814 11.5337C4.50023 11.5337 4.71358 11.4896 4.92147 11.4012C5.14029 11.3019 5.31535 11.1749 5.44665 11.0204C5.57794 10.8548 5.63265 10.6781 5.61077 10.4904V10.4573C5.61077 10.3469 5.65453 10.2917 5.74206 10.2917C5.84053 10.2917 5.89524 10.3469 5.90618 10.4573C5.96089 10.8879 5.82412 11.2246 5.49588 11.4675C5.16765 11.7104 4.79017 11.8318 4.36346 11.8318C4.02429 11.8318 3.69605 11.749 3.37875 11.5834C3.0724 11.4068 2.84263 11.1804 2.68946 10.9044C2.54722 10.6284 2.4761 10.3359 2.4761 10.0267C2.4761 9.58511 2.60192 9.15454 2.85357 8.73501C3.11616 8.31547 3.46628 8.00082 3.90393 7.79106C4.19935 7.64753 4.53852 7.55369 4.92147 7.50953C5.30441 7.45433 5.70377 7.42672 6.11953 7.42672C6.78695 7.42672 7.45984 7.46537 8.13819 7.54265C8.82749 7.61993 9.42379 7.67513 9.92708 7.70825C10.1459 7.71929 10.3593 7.73033 10.5671 7.74137C10.786 7.74137 10.9939 7.74137 11.1908 7.74137C11.9129 7.74137 12.5092 7.67513 12.9797 7.54265C13.4502 7.41016 13.7237 7.1452 13.8003 6.74774C13.8331 6.54902 13.7675 6.36133 13.6033 6.18469C13.4502 5.997 13.2751 5.89764 13.0782 5.8866C12.9687 5.8866 12.914 5.84796 12.914 5.77067C12.914 5.68235 12.9742 5.63819 13.0946 5.63819C13.4119 5.63819 13.669 5.75411 13.8659 5.98596C14.0738 6.20677 14.1504 6.47174 14.0957 6.78086C14.041 7.1452 13.8769 7.42672 13.6033 7.62545C13.3298 7.81314 12.9852 7.94562 12.5694 8.0229C12.1646 8.08914 11.7214 8.12227 11.24 8.12227C11.0212 8.12227 10.7969 8.11675 10.5671 8.10571C10.3483 8.09467 10.1295 8.08363 9.91067 8.07259C9.65903 8.0505 9.38549 8.03394 9.09008 8.0229C8.80561 8.01186 8.50472 8.00634 8.18743 8.00634C8.43908 8.16091 8.61961 8.37067 8.72902 8.63564C8.83843 8.88957 8.89314 9.17662 8.89314 9.49679C8.89314 9.72864 8.86031 9.97152 8.79467 10.2254C8.63055 10.8547 8.29137 11.4012 7.77713 11.8649C7.26289 12.3286 6.65018 12.6874 5.939 12.9414C5.22782 13.1953 4.50023 13.3223 3.75623 13.3223ZM4.52758 3.535C4.79017 3.01611 5.1567 2.63522 5.62718 2.39233C6.09765 2.14944 6.60095 2.028 7.13707 2.028C7.26836 2.028 7.39419 2.03904 7.51454 2.06112C7.64584 2.07216 7.77713 2.08872 7.90843 2.1108C7.91937 2.06664 7.92484 2.028 7.92484 1.99488C7.93578 1.95072 7.94125 1.90655 7.94125 1.86239C7.94125 1.54222 7.79901 1.27173 7.51454 1.05093C7.24101 0.830122 6.89636 0.719719 6.48059 0.719719C6.30553 0.719719 6.125 0.741799 5.939 0.78596C5.753 0.830121 5.567 0.901884 5.381 1.00125C5.0637 1.17789 4.81753 1.43734 4.64247 1.77959C4.47835 2.1108 4.39629 2.45857 4.39629 2.8229C4.39629 3.06579 4.44005 3.30316 4.52758 3.535ZM7.13707 5.02545C7.65131 5.02545 8.0616 4.88193 8.36796 4.59488C8.68526 4.29679 8.8439 3.96006 8.8439 3.58469C8.8439 3.35284 8.7892 3.12651 8.67978 2.90571C8.57037 2.6849 8.36249 2.53033 8.05613 2.44201C7.90296 2.81738 7.69507 3.08787 7.43248 3.25348C7.18083 3.41908 6.92919 3.50188 6.67754 3.50188C6.45871 3.50188 6.2563 3.4522 6.0703 3.35284C5.89524 3.25348 5.80771 3.12651 5.80771 2.97195C5.80771 2.88362 5.82412 2.8229 5.85694 2.78978C5.90071 2.74562 5.94447 2.72354 5.98824 2.72354C6.07577 2.72354 6.11953 2.77874 6.11953 2.88914C6.11953 2.96643 6.16877 3.03267 6.26724 3.08787C6.36571 3.14307 6.48606 3.17067 6.6283 3.17067C6.83618 3.17067 7.05501 3.10995 7.28478 2.98851C7.52548 2.86706 7.70054 2.6573 7.80996 2.35921C7.64584 2.32609 7.47078 2.30953 7.28478 2.30953C6.92372 2.30953 6.56265 2.37025 6.20159 2.49169C5.85147 2.61314 5.55059 2.7953 5.29894 3.03819C5.04729 3.27004 4.88317 3.57365 4.80658 3.94902C4.92694 4.1367 5.08559 4.29679 5.28253 4.42927C5.49041 4.55072 5.74206 4.67216 6.03747 4.7936C6.23442 4.87089 6.42589 4.93161 6.61189 4.97577C6.79789 5.00889 6.97295 5.02545 7.13707 5.02545ZM6.49701 6.35029C6.6283 6.35029 6.73224 6.33373 6.80883 6.30061C6.89636 6.26749 6.95107 6.23437 6.97295 6.20125C6.97295 6.19021 6.97295 6.18469 6.97295 6.18469C6.98389 6.18469 6.98936 6.17917 6.98936 6.16813C6.98936 6.135 6.95107 6.10188 6.87448 6.06876C6.76507 5.99148 6.61736 5.95284 6.43136 5.95284C6.13595 5.93076 5.80771 5.94732 5.44665 6.00252C5.53418 6.05772 5.62718 6.1074 5.72565 6.15157C5.78036 6.17365 5.82959 6.19021 5.87336 6.20125C5.91712 6.21229 5.95542 6.22885 5.98824 6.25093C6.18518 6.31717 6.35477 6.35029 6.49701 6.35029Z" fill="white"/>
</svg>
