<svg width="99" height="69" viewBox="0 0 99 69" xmlns="http://www.w3.org/2000/svg">
<path d="M0 8.32827C0 12.7465 3.58172 16.3283 8 16.3283C12.4183 16.3283 16 12.7465 16 8.32827C16 3.90999 12.4183 0.328268 8 0.328268C3.58172 0.328268 0 3.90999 0 8.32827ZM44.5272 13.2888L43.6951 14.5368L44.5272 13.2888ZM61.483 40.0754L60.0072 40.3437L61.483 40.0754ZM97.2887 68.2718C98.1171 68.2718 98.7887 67.6002 98.7887 66.7718C98.7887 65.9434 98.1171 65.2718 97.2887 65.2718V68.2718ZM8 9.82827C11.1935 9.82827 14.4254 9.68704 17.5729 9.59072C20.7397 9.49382 23.845 9.44118 26.8782 9.6078C32.9372 9.94063 38.6069 11.1447 43.6951 14.5368L45.3592 12.0407C39.6537 8.23697 33.3858 6.96075 27.0427 6.61231C23.8748 6.43829 20.6629 6.49476 17.4812 6.59213C14.2803 6.69007 11.1325 6.82827 8 6.82827V9.82827ZM43.6951 14.5368C47.5488 17.1059 51.211 21.2057 54.1329 25.8897C57.0522 30.5696 59.1684 35.7299 60.0072 40.3437L62.9588 39.807C62.0396 34.7513 59.7574 29.238 56.6782 24.3019C53.6015 19.3698 49.6648 14.911 45.3592 12.0407L43.6951 14.5368ZM60.0072 40.3437C63.3555 58.7591 79.5776 68.2718 97.2887 68.2718V65.2718C80.5675 65.2718 65.9734 56.3869 62.9588 39.807L60.0072 40.3437Z" />
</svg>
