<svg width="255" height="99" viewBox="0 0 255 99" fill="none" xmlns="http://www.w3.org/2000/svg">
<path fill-rule="evenodd" clip-rule="evenodd" d="M90.6792 39.6817C90.5284 39.5309 90.4531 39.2106 90.4531 38.7206C90.4531 38.2683 90.5284 38.0422 90.6792 38.0422C90.9807 38.0422 91.3953 37.9856 91.923 37.8726C92.4506 37.7595 92.9406 37.6087 93.3929 37.4203C93.8452 37.2318 94.0901 37.0622 94.1278 36.9115C94.3917 35.8939 94.5236 34.5936 94.5236 33.0106V8.47442C94.5236 7.19296 94.4105 5.98688 94.1844 4.85618C94.0336 4.25315 93.0725 3.95163 91.3011 3.95163H90.7923C90.5661 3.95163 90.4531 3.74433 90.4531 3.32974C90.4531 2.7267 90.5661 2.42518 90.7923 2.42518C92.7145 2.23673 94.3351 1.93521 95.6543 1.52062C96.9734 1.06834 97.878 0.71029 98.368 0.44646L98.6506 0.276855H98.7637C98.9145 0.276855 99.0652 0.389925 99.216 0.616065C99.3667 0.804515 99.461 0.992965 99.4986 1.18141C99.0841 2.42518 98.8768 4.0647 98.8768 6.09995V18.4811C98.8768 18.6319 98.9145 18.7072 98.9898 18.7072C99.0275 18.7072 99.0841 18.6695 99.1594 18.5942C99.7248 17.9911 100.441 17.4069 101.308 16.8416C102.212 16.2385 103.173 15.7486 104.191 15.3717C105.209 14.9571 106.17 14.7498 107.074 14.7498C109.6 14.7498 111.409 15.6544 112.502 17.4635C113.595 19.2726 114.141 22.0616 114.141 25.8306V31.9364C114.141 32.9917 114.179 33.934 114.254 34.7632C114.33 35.5923 114.443 36.3084 114.593 36.9115C114.669 37.0622 114.933 37.2318 115.385 37.4203C115.837 37.6087 116.327 37.7595 116.855 37.8726C117.383 37.9856 117.759 38.0422 117.986 38.0422C118.099 38.0422 118.174 38.2683 118.212 38.7206C118.249 39.1729 118.231 39.4932 118.155 39.6817L112.106 39.399L106.17 39.6817C106.019 39.5309 105.944 39.2106 105.944 38.7206C105.944 38.2683 106.019 38.0422 106.17 38.0422C106.471 38.0422 106.867 37.9856 107.357 37.8726C107.847 37.7595 108.299 37.6087 108.714 37.4203C109.128 37.2318 109.355 37.0622 109.392 36.9115C109.543 36.3838 109.637 35.7808 109.675 35.1024C109.75 34.424 109.788 33.7078 109.788 32.954V26.9613C109.788 24.6246 109.581 22.8343 109.166 21.5905C108.752 20.3091 108.111 19.4233 107.244 18.9334C106.377 18.4434 105.265 18.1984 103.908 18.1984C103.155 18.1984 102.382 18.4246 101.59 18.8768C100.837 19.2914 100.196 19.7814 99.6683 20.3468C99.1406 20.9121 98.8768 21.4209 98.8768 21.8732V31.8799C98.8768 32.9729 98.9145 33.934 98.9898 34.7632C99.0652 35.5923 99.1783 36.3084 99.329 36.9115C99.4044 37.0622 99.6683 37.2318 100.121 37.4203C100.573 37.6087 101.063 37.7595 101.59 37.8726C102.118 37.9856 102.495 38.0422 102.721 38.0422C102.834 38.0422 102.91 38.2683 102.947 38.7206C102.985 39.1729 102.966 39.4932 102.891 39.6817L96.8415 39.399L90.6792 39.6817ZM144.783 39.6817C144.633 39.5309 144.557 39.2106 144.557 38.7206C144.557 38.2683 144.633 38.0422 144.783 38.0422C145.085 38.0422 145.5 37.9856 146.027 37.8726C146.555 37.7595 147.045 37.6087 147.497 37.4203C147.949 37.2318 148.194 37.0622 148.232 36.9115C148.383 36.3838 148.477 35.7808 148.515 35.1024C148.59 34.424 148.628 33.7078 148.628 32.954V8.47442C148.628 7.19296 148.515 5.98688 148.289 4.85618C148.138 4.25315 147.177 3.95163 145.405 3.95163H144.896C144.67 3.95163 144.557 3.74433 144.557 3.32974C144.557 2.7267 144.67 2.42518 144.896 2.42518C147.158 2.16135 148.835 1.85983 149.928 1.52062C151.021 1.18141 151.775 0.879895 152.189 0.616065L152.755 0.276855H152.868C153.019 0.276855 153.169 0.389925 153.32 0.616065C153.471 0.804515 153.565 0.992965 153.603 1.18141C153.188 2.42518 152.981 4.0647 152.981 6.09995V31.8799C152.981 32.9729 153.019 33.934 153.094 34.7632C153.169 35.5923 153.283 36.3084 153.433 36.9115C153.509 37.0622 153.772 37.2318 154.225 37.4203C154.677 37.6087 155.167 37.7595 155.695 37.8726C156.222 37.9856 156.599 38.0422 156.825 38.0422C156.938 38.0422 157.014 38.2683 157.051 38.7206C157.089 39.1729 157.07 39.4932 156.995 39.6817L150.946 39.399L144.783 39.6817ZM158.747 38.7206C158.747 39.2106 158.823 39.5309 158.973 39.6817L165.136 39.399L171.185 39.6817C171.26 39.4932 171.279 39.1729 171.242 38.7206C171.204 38.2683 171.128 38.0422 171.015 38.0422C170.789 38.0422 170.412 37.9856 169.885 37.8726C169.357 37.7595 168.867 37.6087 168.415 37.4203C167.962 37.2318 167.699 37.0622 167.623 36.9115C167.473 36.3084 167.359 35.5923 167.284 34.7632C167.209 33.934 167.171 32.9729 167.171 31.8799V6.09995C167.171 4.0647 167.378 2.42518 167.793 1.18141C167.755 0.992965 167.661 0.804515 167.51 0.616065C167.359 0.389925 167.209 0.276855 167.058 0.276855H166.945L166.38 0.616065C165.965 0.879895 165.211 1.18141 164.118 1.52062C163.025 1.85983 161.348 2.16135 159.087 2.42518C158.86 2.42518 158.747 2.7267 158.747 3.32974C158.747 3.74433 158.86 3.95163 159.087 3.95163H159.595C161.367 3.95163 162.328 4.25315 162.479 4.85618C162.705 5.98688 162.818 7.19296 162.818 8.47442V32.954C162.818 33.7078 162.78 34.424 162.705 35.1024C162.667 35.7808 162.573 36.3838 162.422 36.9115C162.384 37.0622 162.139 37.2318 161.687 37.4203C161.235 37.6087 160.745 37.7595 160.217 37.8726C159.69 37.9856 159.275 38.0422 158.973 38.0422C158.823 38.0422 158.747 38.2683 158.747 38.7206ZM179.891 38.2117C181.625 39.3047 183.528 39.8512 185.601 39.8512C187.335 39.8512 188.937 39.4367 190.407 38.6075C191.876 37.7406 192.988 36.7795 193.742 35.7242C193.968 35.3096 194.081 34.9704 194.081 34.7066C194.081 34.2166 193.968 33.9716 193.742 33.9716L193.346 34.2543C192.856 34.6312 192.065 35.0646 190.972 35.5546C189.917 36.0069 188.597 36.233 187.014 36.233C185.205 36.233 183.679 35.7619 182.435 34.8196C181.191 33.8774 180.249 32.6902 179.608 31.2579C178.968 29.788 178.647 28.2616 178.647 26.6786C178.647 26.4902 178.798 26.3959 179.1 26.3959H193.346C193.987 26.3959 194.421 26.3206 194.647 26.1698C194.873 25.9813 194.986 25.5102 194.986 24.7564C194.986 23.7011 194.816 22.6458 194.477 21.5905C194.176 20.4975 193.686 19.4233 193.007 18.368C192.291 17.3503 191.273 16.5212 189.954 15.8804C188.635 15.202 187.109 14.8628 185.375 14.8628C183.264 14.8628 181.361 15.3905 179.665 16.4458C177.969 17.4634 176.631 18.9333 175.651 20.8555C174.671 22.7777 174.181 25.0579 174.181 27.6962C174.181 29.9576 174.69 32.0117 175.707 33.8585C176.763 35.6677 178.157 37.1187 179.891 38.2117ZM190.124 24.0215H179.1C178.873 24.0215 178.76 23.8895 178.76 23.6257C178.76 22.8719 178.986 21.9862 179.439 20.9686C179.891 19.9133 180.551 18.9899 181.417 18.1984C182.284 17.3692 183.321 16.9546 184.527 16.9546C185.846 16.9546 186.939 17.3315 187.806 18.0853C188.673 18.8391 189.314 19.7248 189.728 20.7424C190.18 21.7224 190.407 22.6269 190.407 23.4561C190.407 23.833 190.312 24.0215 190.124 24.0215ZM127.201 38.2117C128.934 39.3047 130.838 39.8512 132.911 39.8512C134.644 39.8512 136.246 39.4367 137.716 38.6075C139.186 37.7406 140.298 36.7795 141.052 35.7242C141.278 35.3096 141.391 34.9704 141.391 34.7066C141.391 34.2166 141.278 33.9716 141.052 33.9716L140.656 34.2543C140.166 34.6312 139.375 35.0646 138.282 35.5546C137.226 36.0069 135.907 36.233 134.324 36.233C132.515 36.233 130.989 35.7619 129.745 34.8196C128.501 33.8774 127.559 32.6902 126.918 31.2579C126.277 29.788 125.957 28.2616 125.957 26.6786C125.957 26.4902 126.108 26.3959 126.409 26.3959H140.656C141.297 26.3959 141.73 26.3206 141.956 26.1698C142.182 25.9813 142.296 25.5102 142.296 24.7564C142.296 23.7011 142.126 22.6458 141.787 21.5905C141.485 20.4975 140.995 19.4233 140.317 18.368C139.601 17.3503 138.583 16.5212 137.264 15.8804C135.945 15.202 134.418 14.8628 132.685 14.8628C130.574 14.8628 128.671 15.3905 126.975 16.4458C125.278 17.4634 123.94 18.9333 122.961 20.8555C121.981 22.7777 121.491 25.0579 121.491 27.6962C121.491 29.9576 121.999 32.0117 123.017 33.8585C124.072 35.6677 125.467 37.1187 127.201 38.2117ZM137.434 24.0215H126.409C126.183 24.0215 126.07 23.8895 126.07 23.6257C126.07 22.8719 126.296 21.9862 126.748 20.9686C127.201 19.9133 127.86 18.9899 128.727 18.1984C129.594 17.3692 130.63 16.9546 131.837 16.9546C133.156 16.9546 134.249 17.3315 135.116 18.0853C135.982 18.8391 136.623 19.7248 137.038 20.7424C137.49 21.7224 137.716 22.6269 137.716 23.4561C137.716 23.833 137.622 24.0215 137.434 24.0215ZM74.3402 38.2117C76.0739 39.3047 77.9772 39.8512 80.0502 39.8512C81.7839 39.8512 83.3857 39.4367 84.8557 38.6075C86.3256 37.7406 87.4374 36.7795 88.1912 35.7242C88.4174 35.3096 88.5304 34.9704 88.5304 34.7066C88.5304 34.2166 88.4174 33.9716 88.1912 33.9716L87.7955 34.2543C87.3055 34.6312 86.514 35.0646 85.421 35.5546C84.3657 36.0069 83.0465 36.233 81.4636 36.233C78.8253 36.233 76.7523 35.2342 75.2447 33.2367C73.7748 31.2391 73.0399 28.7327 73.0399 25.7175C73.0399 22.8154 73.6617 20.6294 74.9055 19.1595C76.187 17.6896 77.6003 16.9546 79.1456 16.9546C80.7663 16.9546 82.1608 17.8215 83.3292 19.5552C83.8569 20.309 84.2903 20.8367 84.6295 21.1382C84.9687 21.402 85.4587 21.5339 86.0994 21.5339C87.494 21.5339 88.1912 20.2713 88.1912 17.7461C86.6082 15.8239 83.7438 14.8628 79.5979 14.8628C77.2611 14.8628 75.2636 15.447 73.6052 16.6154C71.9845 17.7838 70.7408 19.3479 69.8739 21.3078C69.0447 23.23 68.6301 25.3595 68.6301 27.6962C68.6301 29.9576 69.1389 32.0117 70.1566 33.8585C71.2119 35.6677 72.6064 37.1187 74.3402 38.2117ZM52.6311 39.6817C52.4804 39.5309 52.405 39.2106 52.405 38.7206C52.405 38.2683 52.4804 38.0422 52.6311 38.0422C52.9326 38.0422 53.3472 37.9856 53.8749 37.8726C54.4025 37.7595 54.8925 37.6087 55.3448 37.4203C55.7971 37.2318 56.0421 37.0622 56.0798 36.9115C56.2305 36.3838 56.3247 35.7808 56.3624 35.1023C56.4378 34.4239 56.4755 33.7078 56.4755 32.954V22.2689C56.4755 20.8367 56.2117 19.8191 55.684 19.216C55.3071 18.7261 54.8548 18.4245 54.3272 18.3115C53.7995 18.1607 53.3472 18.0853 52.9703 18.0853C52.5934 18.0476 52.405 17.9911 52.405 17.9157C52.405 17.0112 52.5181 16.54 52.7442 16.5024C54.7418 16.2008 56.2682 15.9559 57.3235 15.7674C58.3788 15.5413 59.3211 15.334 60.1503 15.1455L60.8287 14.9759C60.9794 14.9382 61.0737 15.089 61.1114 15.4282C61.1491 15.7674 61.1491 16.0124 61.1114 16.1631C61.036 16.9169 60.9606 17.6331 60.8852 18.3115C60.8475 18.9899 60.8287 19.6306 60.8287 20.2337V31.8799C60.8287 32.9729 60.8664 33.934 60.9418 34.7631C61.0171 35.5923 61.1302 36.3084 61.281 36.9115C61.3563 37.0622 61.6202 37.2318 62.0725 37.4203C62.5247 37.6087 63.0147 37.7595 63.5424 37.8726C64.07 37.9856 64.4469 38.0422 64.6731 38.0422C64.7861 38.0422 64.8615 38.2683 64.8992 38.7206C64.9369 39.1729 64.918 39.4932 64.8427 39.6817L58.7934 39.399L52.6311 39.6817ZM58.2281 8.81361C57.4743 8.81361 56.8147 8.53093 56.2494 7.96558C55.684 7.40023 55.4013 6.74066 55.4013 5.98686C55.4013 5.19537 55.684 4.5358 56.2494 4.00814C56.8147 3.44279 57.4743 3.16011 58.2281 3.16011C59.0196 3.16011 59.6791 3.44279 60.2068 4.00814C60.7722 4.5358 61.0548 5.19537 61.0548 5.98686C61.0548 6.74066 60.7722 7.40023 60.2068 7.96558C59.6791 8.53093 59.0196 8.81361 58.2281 8.81361ZM0.619141 38.8338C0.619141 39.2107 0.713366 39.4934 0.901815 39.6818L7.5164 39.3991C7.81792 39.3991 8.51519 39.4368 9.60819 39.5122C10.7012 39.5499 12.19 39.6064 14.0745 39.6818C14.1498 39.3803 14.1875 39.1165 14.1875 38.8903C14.1875 38.325 14.1121 38.0423 13.9614 38.0423C13.7352 38.0423 13.283 37.9858 12.6045 37.8727C11.9638 37.7219 11.3419 37.5523 10.7389 37.3639C10.1359 37.1377 9.75896 36.9304 9.60819 36.742C9.38206 36.4405 9.26898 35.9505 9.26898 35.2721C9.26898 34.8575 9.30667 33.3876 9.38206 30.8624C9.49512 28.3371 9.62704 25.0016 9.7778 20.8557C9.92856 16.6721 10.0605 11.9232 10.1735 6.60888L23.12 39.5122C23.4216 39.5876 23.5912 39.6253 23.6289 39.6253C24.3073 39.6253 25.0045 38.8149 25.7206 37.1943L37.5364 8.92681C37.6495 8.66298 37.7437 8.53106 37.8191 8.53106C37.9699 8.53106 38.1018 8.73836 38.2149 9.15295C38.3279 9.52985 38.4222 9.98213 38.4975 10.5098C38.6106 10.9998 38.6671 11.452 38.6671 11.8666L39.3456 31.7669V34.7633C39.3456 36.0824 39.1194 36.8927 38.6671 37.1943C38.3279 37.3827 37.7626 37.5712 36.9711 37.7596C36.2173 37.9481 35.652 38.0423 35.2751 38.0423C35.1243 38.0423 35.0489 38.2873 35.0489 38.7772C35.0489 39.2295 35.1243 39.531 35.2751 39.6818L42.0592 39.3991C42.4361 39.3991 43.1711 39.4368 44.2641 39.5122C45.3358 39.5479 46.746 39.6006 48.4947 39.6702C48.8933 39.8722 49.2949 40.058 49.6928 40.242C49.7733 40.2792 49.8536 40.3164 49.9337 40.3536C53.5788 42.0461 56.2596 45.6322 57.2031 49.5388C57.4934 50.7166 57.6385 51.9064 57.6385 53.1082C57.6385 55.6321 57.058 57.9636 55.8969 60.1029C55.0503 61.7133 53.9739 63.1075 52.6676 64.2853C49.5472 61.6653 46.8501 59.3818 44.5763 57.4348C42.3267 55.4878 40.706 53.8654 39.7142 52.5674C38.7466 51.2694 38.2628 49.8512 38.2628 48.3129C38.2628 46.9428 38.6862 45.8011 39.5328 44.8877C40.3794 43.9502 41.5405 43.4815 43.0161 43.4815C44.4916 43.4815 45.7132 43.9863 46.6808 44.9958C47.6483 45.9813 48.1684 47.3274 48.241 49.034H48.6038L49.1118 44.9598C47.5879 43.2532 45.4471 42.3999 42.6895 42.3999C40.5125 42.3999 38.8192 42.9767 37.6097 44.1305C36.4003 45.2843 35.7955 46.7265 35.7955 48.4571C35.7955 50.1637 36.3156 51.8102 37.3557 53.3966C36.0495 54.0697 35.0215 54.9831 34.2716 56.1368C33.5459 57.2666 33.1831 58.6006 33.1831 60.1389C33.1831 62.134 33.8604 63.8286 35.215 65.2227C36.5212 66.5688 38.1419 67.5062 40.0771 68.035C41.4075 68.4196 42.7621 68.6119 44.1409 68.6119C46.8985 68.6119 49.3779 67.8908 51.5791 66.4486C53.1998 67.7706 54.5665 68.8522 55.6792 69.6935C56.7919 70.5588 58.0014 71.304 59.3076 71.9289C61.4605 72.9144 63.4561 73.4072 65.2945 73.4072C66.0941 73.4072 66.8718 73.32 67.6276 73.1456C67.3363 73.3981 67.0513 73.6585 66.7727 73.927C63.2575 77.2996 61.5 81.0997 61.5 85.3274C61.5 89.1275 62.9488 92.2389 65.8464 94.6615C69.0765 97.3691 73.5654 98.7229 79.3132 98.7229C82.4958 98.7229 85.4171 98.2479 88.0772 97.2978C90.7848 96.3478 93.1124 95.1128 95.06 93.5927C97.0551 92.0251 98.5989 90.3626 99.6914 88.605C100.784 86.8475 101.33 85.1611 101.33 83.5461C101.33 81.741 100.523 80.1972 98.9076 78.9146C97.2926 77.6321 94.68 76.9908 91.0698 76.9908C89.1698 76.9908 87.2934 77.3471 85.4409 78.0596C83.5883 78.7246 81.8545 79.6272 80.2394 80.7672C78.6244 81.9073 77.2231 83.1186 76.0355 84.4011C74.848 85.6837 73.9929 86.9425 73.4704 88.1775C73.3754 88.4625 73.4704 88.6763 73.7554 88.8188C74.0405 88.9613 74.2305 88.89 74.3255 88.605C74.7055 87.75 75.4655 86.7524 76.6055 85.6124C77.7456 84.4724 79.0994 83.3798 80.6669 82.3348C82.2345 81.2422 83.8496 80.3635 85.5121 79.6984C87.2222 78.9859 88.8135 78.6296 90.2861 78.6296C92.4711 78.6296 94.0387 79.0809 94.9887 79.9834C95.9863 80.8385 96.485 81.931 96.485 83.2611C96.485 84.6861 96.01 86.2299 95.06 87.8925C94.1574 89.5551 92.8987 91.1464 91.2836 92.6664C89.6685 94.1865 87.8397 95.4215 85.7971 96.3716C83.7546 97.3216 81.5932 97.7966 79.3132 97.7966C75.7505 97.7966 73.0192 96.6328 71.1191 94.3052C69.3615 92.2627 68.4827 89.5788 68.4827 86.2537C68.4827 82.1685 69.7415 78.3921 72.2591 74.9245C75.0617 71.2194 78.6481 69.0105 83.0183 68.298C84.6809 69.9606 86.7234 70.7918 89.146 70.7918C90.9986 70.7918 91.9249 70.2456 91.9249 69.153C91.9249 68.013 91.0698 67.3717 89.3598 67.2292C88.5522 67.1817 87.7447 67.158 86.9372 67.158C86.1297 67.1105 85.3221 67.1105 84.5146 67.158C84.1821 66.4454 83.9921 65.7091 83.9446 64.9491C92.7324 64.6641 99.5727 62.8353 104.465 59.4627C108.313 56.7551 110.237 54.0237 110.237 51.2686C110.237 49.511 109.429 48.1097 107.814 47.0647C106.199 45.9721 104.109 45.4259 101.544 45.4259C100.974 45.4259 100.38 45.4496 99.7627 45.4971C99.1926 45.5446 98.5989 45.6159 97.9814 45.7109C92.0436 46.7084 87.4597 48.8223 84.2296 52.0524C81.522 54.76 80.1682 57.8001 80.1682 61.1727C80.1682 62.1703 80.2632 63.049 80.4532 63.8091C79.4556 63.7616 78.4819 63.6666 77.5318 63.5241C76.5818 63.3816 75.6555 63.2153 74.753 63.0253C71.6653 62.3128 69.219 60.959 67.4139 58.9639C65.8464 57.1588 65.0626 55.1875 65.0626 53.0499C65.0626 50.6748 65.9414 48.751 67.699 47.2784C69.4565 45.8059 71.8079 45.0696 74.753 45.0696C78.0781 45.0696 81.4745 45.9009 84.9421 47.5635C85.3696 47.7535 85.5834 47.611 85.5834 47.1359C85.5834 46.8984 85.5121 46.7559 85.3696 46.7084C83.5171 45.8059 81.6645 45.1646 79.8119 44.7846C77.9594 44.3571 76.1305 44.1433 74.3255 44.1433C70.5728 44.1433 67.4614 44.9746 64.9913 46.6372C62.5213 48.3947 61.2862 50.5561 61.2862 53.1212C61.2862 55.4013 62.2837 57.5151 64.2788 59.4627C66.4639 61.5527 69.5278 63.0728 73.4704 64.0228C74.563 64.2603 75.7268 64.4741 76.9618 64.6641C78.1969 64.8066 79.4794 64.9016 80.8094 64.9491C81.1895 65.8042 81.6407 66.6117 82.1633 67.3717C77.6513 67.8094 73.7598 69.0348 70.489 71.0479C69.3377 71.4429 68.2473 71.6405 67.2175 71.6405C65.6936 71.6405 64.3632 71.4482 63.2263 71.0636C60.759 70.2223 58.2917 68.8162 55.8243 66.8452L53.5022 64.9703C54.6874 63.8646 55.6913 62.5907 56.5137 61.1485C57.9409 58.6006 58.712 54.306 58.712 51.662C58.712 47.4315 57.0766 43.8973 54.0287 41.1331C52.1586 39.6944 50.3533 38.9927 48.6101 38.3151C48.4213 38.2417 48.2334 38.1686 48.0461 38.0949C47.8561 37.9904 47.6339 37.8995 47.3735 37.8727C46.8082 37.7596 46.2805 37.6089 45.7906 37.4204C45.3006 37.232 44.9991 37.0247 44.886 36.7985C44.396 35.5171 44.1133 33.7833 44.038 31.5973L43.5292 8.64413C43.5292 6.45812 43.7553 5.1955 44.2076 4.85629C44.5468 4.59246 45.0556 4.34748 45.734 4.12134C46.4124 3.85751 46.9589 3.7256 47.3735 3.7256H47.4866C47.675 3.7256 47.7693 3.46177 47.7693 2.93411C47.7693 2.70797 47.7127 2.42529 47.5997 2.08608C46.6574 2.16146 45.6586 2.218 44.6033 2.25569C43.548 2.29338 42.4361 2.31222 41.2678 2.31222C40.8909 2.31222 40.3067 2.29338 39.5152 2.25569C38.7614 2.218 37.7814 2.16146 36.5754 2.08608L34.314 8.87027C33.221 11.6593 31.9395 14.8441 30.4696 18.4247C28.9997 22.0052 27.3413 25.9627 25.4945 30.297C25.4568 30.4478 25.3626 30.5231 25.2118 30.5231C25.1365 30.5231 25.0611 30.4855 24.9857 30.4101C17.8246 12.3566 14.0933 2.91526 13.7918 2.08608C12.7365 2.16146 11.7754 2.23684 10.9085 2.31222C10.0793 2.34991 9.30667 2.36876 8.59057 2.36876C7.45987 2.36876 6.34801 2.33107 5.255 2.25569C4.162 2.18031 3.16321 2.12377 2.25865 2.08608C2.10789 2.23684 2.03251 2.51952 2.03251 2.93411C2.03251 3.46177 2.10789 3.7256 2.25865 3.7256C2.63555 3.7256 3.16321 3.78213 3.84163 3.8952C4.52005 4.00827 5.14193 4.15903 5.70728 4.34748C6.31032 4.49824 6.64953 4.68669 6.72491 4.91283C6.87567 5.4028 6.95105 6.1566 6.95105 7.17423C6.95105 7.81496 6.91336 9.26602 6.83798 11.5274C6.7626 13.7511 6.66838 16.6156 6.55531 20.1207C6.47993 23.5882 6.40455 27.508 6.32917 31.88C6.29148 34.4806 5.95227 36.1201 5.31154 36.7985C5.0854 37.0247 4.68966 37.232 4.12431 37.4204C3.55896 37.6089 2.97476 37.7596 2.37172 37.8727C1.76868 37.9858 1.27871 38.0423 0.901815 38.0423C0.713366 38.0423 0.619141 38.3061 0.619141 38.8338ZM239.727 94.2342C236.26 94.2342 234.526 92.1204 234.526 87.8927C234.526 85.8026 235.024 83.5938 236.022 81.2662C237.447 77.8936 239.466 75.0435 242.078 72.7159C244.644 70.4358 247.066 69.2957 249.346 69.2957C252.861 69.2957 254.619 71.3621 254.619 75.4947C254.619 77.6323 254.096 79.8886 253.051 82.2637C251.816 85.1138 250.035 87.7027 247.707 90.0303C244.81 92.8329 242.15 94.2342 239.727 94.2342ZM240.867 92.6666C241.96 92.6666 243.124 92.2154 244.359 91.3128C245.926 90.1728 247.707 87.7977 249.703 84.1876C251.888 80.2924 252.98 77.1573 252.98 74.7822C252.98 72.6446 252.078 71.5758 250.273 71.5758C248.848 71.5758 247.232 72.4784 245.427 74.2834C243.67 76.041 242.173 78.2736 240.938 80.9812C239.276 84.5438 238.445 87.3939 238.445 89.5315C238.445 91.6216 239.252 92.6666 240.867 92.6666ZM220.665 88.9616C220.665 92.4767 222.043 94.2343 224.798 94.2343C227.22 94.2343 229.524 92.5005 231.709 89.0328L231.994 88.6766L230.854 88.1065L230.569 88.4628C228.954 91.0754 227.434 92.3817 226.009 92.3817C224.916 92.3817 224.37 91.5742 224.37 89.9591C224.37 88.4865 224.726 86.7527 225.439 84.7577C226.294 82.3826 227.434 79.485 228.859 76.0648C230.332 72.6447 232.113 68.7495 234.203 64.3794C236.246 60.0567 237.908 56.7078 239.191 54.3328C240.473 51.9102 241.352 50.4376 241.827 49.9151C241.637 49.9626 241.423 49.9863 241.186 49.9863C240.948 49.9388 240.663 49.8913 240.331 49.8438L238.834 49.6301C237.647 49.5826 236.697 49.7963 235.984 50.2714C235.367 50.7464 234.773 51.7677 234.203 53.3352C232.73 57.3729 231.424 60.8168 230.284 63.6669C229.192 66.4695 228.242 68.6545 227.434 70.2221C225.961 69.3671 224.37 68.9396 222.66 68.9396C218.812 68.9396 215.392 70.7446 212.4 74.3548C211.545 75.3523 210.761 76.4448 210.048 77.6324C209.383 78.7724 208.766 79.9837 208.196 81.2663C207.008 83.9264 206.414 86.349 206.414 88.5341C206.414 91.4792 207.602 93.2842 209.977 93.9493C210.215 93.9968 210.428 94.0443 210.618 94.0918H211.188C214.466 94.0918 217.886 90.9566 221.449 84.6864C220.926 86.0165 220.665 87.4415 220.665 88.9616ZM217.601 87.4653C215.369 90.5529 213.468 92.0967 211.901 92.0967C210.618 92.0967 209.977 91.1467 209.977 89.2466C209.977 87.394 210.642 85.2327 211.972 82.7626C213.635 79.6275 215.701 76.8486 218.171 74.426C220.784 71.8134 223.064 70.5071 225.011 70.5071C225.819 70.5071 226.508 70.7921 227.078 71.3622C223.135 78.7249 219.976 84.0926 217.601 87.4653ZM183.476 94.7326C184.379 92.4525 185.567 89.6024 187.039 86.1822C188.559 82.7621 190.269 78.867 192.169 74.4968C192.549 73.5468 192.906 72.7867 193.238 72.2167C193.618 71.6467 193.951 71.1954 194.236 70.8629C194.853 70.1504 195.684 69.8654 196.73 70.0079L198.226 70.2216C198.558 70.2691 198.843 70.3166 199.081 70.3641C199.366 70.3641 199.603 70.3404 199.793 70.2929C198.843 70.7679 197.727 72.1217 196.444 74.3543C195.209 76.5394 193.832 79.532 192.312 83.3321C192.834 82.6671 193.499 81.7883 194.307 80.6958C195.114 79.5557 196.136 78.2494 197.371 76.7769C198.748 75.1618 200.173 73.6655 201.646 72.288C203.118 70.9104 204.544 70.2216 205.921 70.2216C207.014 70.2216 207.797 70.5779 208.272 71.2904C208.747 72.0029 208.985 72.8105 208.985 73.713C208.985 74.8055 208.557 75.7793 207.702 76.6344C206.847 77.4894 206.016 77.9169 205.209 77.9169C204.876 77.9169 204.52 77.8457 204.14 77.7032C203.807 77.5607 203.641 77.3469 203.641 77.0619C203.641 76.8244 203.689 76.6106 203.784 76.4206C203.879 76.1831 203.926 75.9218 203.926 75.6368C203.926 74.9243 203.594 74.568 202.928 74.568C202.691 74.568 202.358 74.6393 201.931 74.7818C201.551 74.8768 201.028 75.2568 200.363 75.9218C199.033 77.1569 197.585 78.6532 196.017 80.4108C194.497 82.1208 193.048 84.0446 191.671 86.1822C190.34 88.3198 189.248 90.6712 188.393 93.2363C188.155 93.9488 187.443 94.3288 186.255 94.3763C184.64 94.4713 183.714 94.59 183.476 94.7326ZM174.114 93.4503C174.78 94.0679 175.635 94.3766 176.68 94.3766C178.58 94.3766 180.503 92.9516 182.451 90.1015L182.736 89.674L181.739 89.0327L181.454 89.3889C179.791 91.479 178.485 92.5241 177.535 92.5241C176.87 92.5241 176.537 91.9065 176.537 90.6715C176.537 90.339 176.561 89.9827 176.608 89.6027C176.656 89.1752 176.727 88.7239 176.822 88.2489C177.012 87.2514 177.368 86.1113 177.891 84.8288C178.413 83.5462 179.078 82.1212 179.886 80.5536C180.646 79.081 181.311 77.8935 181.881 76.991C182.499 76.0409 183.021 75.3521 183.449 74.9246C183.021 75.0196 182.499 74.9959 181.881 74.8534L180.456 74.6396C179.411 74.5921 178.508 74.9484 177.748 75.7084C177.511 75.9934 177.202 76.4209 176.822 76.991C176.442 77.561 176.015 78.2973 175.54 79.1998C174.4 81.3849 173.307 83.3087 172.262 84.9713C171.217 86.6338 170.196 88.0351 169.198 89.1752C167.393 91.2653 165.802 92.3103 164.424 92.3103C163.189 92.3103 162.572 91.5028 162.572 89.8877C162.572 87.7501 163.593 84.9713 165.635 81.5511C166.395 80.3161 167.203 79.1523 168.058 78.0598C168.913 76.9197 169.816 75.8272 170.766 74.7821C173.473 71.9795 175.825 70.5782 177.82 70.5782C179.577 70.5782 180.693 71.4333 181.169 73.1433C182.024 73.3333 182.451 73.0246 182.451 72.217C182.451 71.7895 182.285 71.4095 181.952 71.077C180.575 69.5569 178.722 68.7969 176.395 68.7969C174.494 68.7969 172.523 69.3194 170.481 70.3645C169.483 70.887 168.557 71.4808 167.702 72.1458C166.847 72.8108 166.087 73.5471 165.422 74.3546C161.384 79.1523 159.365 83.8075 159.365 88.3201C159.365 90.1727 159.745 91.6215 160.505 92.6666C161.218 93.7591 162.192 94.3054 163.427 94.3054C164.852 94.3054 166.467 93.4741 168.272 91.8115C170.029 90.1015 171.716 87.8926 173.331 85.185C172.903 86.7526 172.689 88.1539 172.689 89.3889C172.689 91.289 173.164 92.6428 174.114 93.4503ZM137.56 94.1623C134.52 94.1623 133 92.7372 133 89.8871C133 88.8896 133.285 87.5595 133.855 85.897C134.425 84.1869 135.233 82.1681 136.278 79.8405L140.197 71.2189C140.624 70.2214 141.55 69.7226 142.975 69.7226H147.251C145.588 70.9577 144.068 72.9527 142.69 75.7078C142.168 76.7529 141.527 78.0592 140.767 79.6267C140.054 81.1468 139.223 82.9044 138.273 84.8994C137.37 86.752 136.919 88.4146 136.919 89.8871C136.919 91.4072 137.442 92.1672 138.487 92.1672C139.627 92.1672 140.98 91.2647 142.548 89.4596C145.161 86.4195 148.676 80.3393 153.093 71.2189C153.616 70.2214 154.518 69.7226 155.801 69.7226H159.649C158.081 71.0052 156.442 73.3565 154.732 76.7766C152.357 81.5743 150.932 85.2319 150.457 87.7495C150.41 88.0346 150.362 88.2958 150.315 88.5333V89.2458C150.315 91.0984 150.956 92.0247 152.238 92.0247C153.616 92.0247 155.231 90.6709 157.084 87.9633L158.152 88.4621C155.587 92.2622 153.046 94.1623 150.528 94.1623C147.868 94.1623 146.538 92.476 146.538 89.1033C146.538 87.8208 146.776 86.467 147.251 85.0419C143.736 91.1222 140.505 94.1623 137.56 94.1623ZM119.352 88.9616C119.352 92.4767 120.73 94.2343 123.485 94.2343C125.908 94.2343 128.211 92.5005 130.396 89.0328L130.682 88.6766L129.541 88.1065L129.256 88.4628C127.641 91.0754 126.121 92.3817 124.696 92.3817C123.604 92.3817 123.057 91.5742 123.057 89.9591C123.057 88.4865 123.414 86.7527 124.126 84.7577C124.981 82.3826 126.121 79.485 127.546 76.0648C129.019 72.6447 130.8 68.7495 132.89 64.3794C134.933 60.0567 136.595 56.7078 137.878 54.3328C139.161 51.9102 140.039 50.4376 140.514 49.9151C140.324 49.9626 140.111 49.9863 139.873 49.9863C139.636 49.9388 139.351 49.8913 139.018 49.8438L137.522 49.6301C136.334 49.5826 135.384 49.7963 134.672 50.2714C134.054 50.7464 133.46 51.7677 132.89 53.3352C131.418 57.3729 130.111 60.8168 128.971 63.6669C127.879 66.4695 126.929 68.6545 126.121 70.2221C124.649 69.3671 123.057 68.9396 121.347 68.9396C117.5 68.9396 114.08 70.7446 111.087 74.3548C110.232 75.3523 109.448 76.4448 108.736 77.6324C108.071 78.7724 107.453 79.9837 106.883 81.2663C105.696 83.9264 105.102 86.349 105.102 88.5341C105.102 91.4792 106.289 93.2842 108.664 93.9493C108.902 93.9968 109.116 94.0443 109.306 94.0918H109.876C113.153 94.0918 116.573 90.9566 120.136 84.6864C119.614 86.0165 119.352 87.4415 119.352 88.9616ZM116.288 87.4653C114.056 90.5529 112.156 92.0967 110.588 92.0967C109.306 92.0967 108.664 91.1467 108.664 89.2466C108.664 87.394 109.329 85.2327 110.659 82.7626C112.322 79.6275 114.388 76.8486 116.858 74.426C119.471 71.8134 121.751 70.5071 123.699 70.5071C124.506 70.5071 125.195 70.7921 125.765 71.3622C121.822 78.7249 118.664 84.0926 116.288 87.4653ZM83.9446 63.7378C91.3549 63.3578 97.5538 61.434 102.542 57.9664C106.579 55.1162 108.598 52.6462 108.598 50.5561C108.598 48.4185 106.864 47.3497 103.397 47.3497C98.6939 47.3497 94.1575 49.2973 89.7873 53.1924C86.1772 56.375 84.2296 59.8902 83.9446 63.7378ZM44.794 67.4942C42.6169 67.4942 40.6697 66.8452 38.9522 65.5472C36.8478 63.9848 35.7955 62.0499 35.7955 59.7423C35.7955 57.4348 36.5212 55.608 37.9726 54.262C38.9643 55.5359 40.5004 57.0743 42.5807 58.877C44.6609 60.6798 47.3822 62.9753 50.7446 65.7635C48.882 66.9173 46.8985 67.4942 44.794 67.4942Z" fill="white"/>
</svg>
