<svg width="261" height="330" viewBox="0 0 261 330"  xmlns="http://www.w3.org/2000/svg">
<path opacity="0.5" d="M187.047 71.9643L187.096 71.7988L187.233 71.9259L187.047 71.9643ZM112.499 94.7456C112.579 94.7517 112.642 94.8971 112.713 94.9798C112.626 95.0472 112.538 95.1172 112.451 95.1846C112.385 95.0956 112.322 95.009 112.255 94.92C112.327 94.8631 112.421 94.7363 112.499 94.7456ZM57.8417 207.761L57.7879 207.95L57.6312 207.803L57.8417 207.761ZM178.318 222.222L178.139 222.179L178.273 222.016L178.318 222.222ZM160.192 246.309C160.265 246.325 160.313 246.461 160.37 246.545C160.283 246.599 160.187 246.706 160.114 246.693C160.041 246.678 159.994 246.542 159.936 246.457C160.023 246.404 160.119 246.296 160.192 246.309ZM136.432 261.662C136.512 261.618 136.604 261.525 136.666 261.542C136.731 261.555 136.768 261.679 136.818 261.753C136.739 261.8 136.659 261.844 136.58 261.891C136.53 261.814 136.483 261.739 136.432 261.662ZM174.918 219.262C174.944 219.244 175.056 219.33 175.126 219.368C175.037 219.505 174.945 219.643 174.855 219.778C174.812 219.689 174.769 219.602 174.728 219.515C174.788 219.429 174.836 219.325 174.918 219.262ZM112.82 235.44C112.871 235.5 112.865 235.607 112.883 235.697C112.764 235.696 112.648 235.7 112.531 235.701C112.55 235.612 112.569 235.523 112.589 235.437C112.671 235.435 112.789 235.402 112.82 235.44ZM213.972 50.467C214.147 50.5165 214.304 50.6215 214.466 50.7034C214.393 50.7717 214.298 50.9126 214.251 50.8993C214.069 50.8422 213.907 50.738 213.724 50.6476C213.817 50.5768 213.916 50.452 213.972 50.467ZM215.686 19.4528C215.891 19.3923 216.093 19.3098 216.304 19.2877C216.371 19.2816 216.454 19.4466 216.531 19.5314C216.323 19.595 216.115 19.6586 215.889 19.7275C215.822 19.6386 215.756 19.5469 215.686 19.4528ZM30.2975 240.405C30.4856 240.386 30.7136 240.741 30.9211 240.926C30.4338 241.088 29.9548 241.31 29.4534 241.39C29.2253 241.428 28.9501 241.185 28.3675 240.921C29.2305 240.677 29.7564 240.465 30.2975 240.405ZM58.452 173.431C58.5448 173.402 58.7837 173.837 58.9534 174.057C58.1969 174.436 57.4433 174.814 56.6869 175.193C56.5252 174.885 56.3666 174.579 56.2052 174.274C56.9509 173.983 57.6897 173.663 58.452 173.431ZM174.716 216.787C174.517 216.855 174.322 216.923 174.123 216.991C173.682 215.639 173.24 214.285 172.799 212.934C172.987 212.87 173.177 212.805 173.367 212.741C173.817 214.089 174.266 215.437 174.716 216.787ZM259.547 55.6942C259.287 56.3509 258.489 56.7993 257.926 57.3397C257.544 56.8847 256.853 56.4259 256.86 55.9811C256.873 55.3932 257.435 54.8168 257.762 54.235C258.244 54.0543 258.723 53.8712 259.202 53.6908C259.343 54.3673 259.763 55.1521 259.547 55.6942ZM113.143 210.479C113.421 210.431 113.851 211.184 114.211 211.569C113.354 211.998 112.528 212.562 111.619 212.799C111.182 212.912 110.58 212.402 109.149 211.784C111.071 211.123 112.082 210.672 113.143 210.479ZM134.189 152.679C133.836 152.848 133.325 153.25 133.157 153.141C132.202 152.527 131.284 151.836 130.5 151.032C130.417 150.948 131.295 149.962 132.087 148.925C132.968 150.5 133.579 151.59 134.189 152.679ZM100.366 218.454C101.125 218.532 101.753 219.815 102.439 220.564C101.498 221.194 100.612 222.181 99.5963 222.332C98.9153 222.43 98.0548 221.343 96.3799 220.148C98.3619 219.242 99.4187 218.355 100.366 218.454ZM22.0914 253.447C23.5589 254.747 24.7549 256.351 25.9066 257.943C25.9563 258.015 24.0677 259.707 23.9246 259.597C22.1922 258.254 20.6207 256.714 19.0077 255.223C19.1747 254.822 19.3444 254.42 19.5114 254.018C20.3949 253.798 21.7125 253.111 22.0914 253.447ZM224.496 78.6665C225.332 78.5341 226.89 79.3924 227.208 80.1795C227.856 81.7717 230.845 82.4388 229.074 85.0949C227.267 87.8004 226.017 88.0823 224.163 85.4151C223.35 84.2437 222.965 82.7842 222.27 81.1955C223.111 80.1719 223.7 78.7964 224.496 78.6665ZM134.195 313.764C134.715 312.219 136.643 310.231 138.132 310.091C141.186 309.798 141.6 313.003 141.4 314.889C141.264 316.185 138.907 317.26 136.656 319.193C135.419 316.648 133.817 314.885 134.195 313.764ZM150.27 237.874C145.466 232.059 142.738 225.13 141.096 217.963C140.182 213.977 140.796 209.651 140.771 205.476C140.768 205.247 141.194 205.015 141.422 204.784C141.629 205.114 141.93 205.42 142.031 205.779C143.124 209.685 144.02 213.653 145.293 217.502C148.42 226.964 152.794 235.85 158.518 244.084C158.813 244.512 158.913 245.071 159.103 245.568C158.849 245.774 158.593 245.981 158.337 246.188C155.634 243.429 152.715 240.84 150.27 237.874ZM32.6174 240.406C36.0034 239.631 39.3649 238.739 42.7753 238.1C52.8763 236.209 62.9926 234.388 73.1131 232.597C83.6339 230.737 94.1936 229.93 104.738 232.276C106.802 232.735 108.68 233.998 110.644 234.889C110.549 235.281 110.458 235.673 110.367 236.067C84.1175 232.128 58.5967 239.363 32.6174 240.406ZM165.978 148.88C166.891 153.695 167.425 158.59 167.859 163.477C168.91 175.266 169.72 187.078 170.826 198.865C171.16 202.422 172.14 205.922 172.412 209.509C164.392 186.725 160.61 163.354 161.607 139.326C162.059 139.241 162.508 139.154 162.958 139.07C163.992 142.336 165.347 145.541 165.978 148.88ZM104.218 124.339C117.304 121.588 130.544 119.529 143.588 116.624C150.482 115.086 157.1 112.372 164.812 109.874C161.265 112.337 158.638 114.916 155.463 116.211C148.377 119.109 141.174 121.998 133.735 123.731C122.474 126.356 110.991 128.091 99.5697 130.006C94.1359 130.917 88.623 131.375 82.0716 132.168C89.4814 127.586 96.8732 125.884 104.218 124.339ZM136.027 191.56C125.299 200.406 113.212 206.769 99.5898 209.758C86.0032 212.736 72.4099 211.905 59.0621 207.673C85.6437 206.455 110.819 199.042 136.027 191.56ZM207.489 102.006C205.15 89.7113 202.334 77.4904 196.386 66.2375C196.633 65.9789 196.879 65.7203 197.123 65.4649C199.931 68.0734 202.89 70.542 205.511 73.3204C211.415 79.5798 214.159 87.3105 215.641 95.5312C217.811 107.547 217.449 119.569 215.549 131.588C215.12 134.293 214.895 137.036 214.577 139.758C214.303 139.755 214.029 139.746 213.755 139.743C211.689 127.158 209.874 114.532 207.489 102.006ZM108.599 299.946C111.415 287.282 114.025 274.57 116.54 261.848C117.975 254.597 119.032 247.275 120.306 239.995C120.395 239.484 120.881 239.04 121.183 238.568C121.432 239.216 121.869 239.856 121.897 240.511C122.295 249.545 123.257 258.604 122.848 267.604C122.174 282.297 118.063 296.374 112.242 309.869C109.884 315.33 106.375 320.311 103.387 325.511C103.035 325.348 102.679 325.186 102.327 325.023C104.432 316.667 106.729 308.354 108.599 299.946ZM1.96264 327.874C2.49719 327.081 2.87797 326.121 3.58442 325.523C29.0918 303.897 52.8348 279.946 84.4992 266.386C60.3138 291.034 31.6205 309.931 1.96264 327.874ZM118.782 236.598C116.955 247.2 115.045 257.788 113.061 268.36C111.115 278.716 109.144 289.066 106.996 299.381C105.288 307.6 103.301 315.764 101.414 323.948C101.242 324.686 100.903 325.389 100.64 326.108C100.124 325.274 99.1983 324.458 99.1608 323.603C99.003 320.02 98.8749 316.406 99.172 312.841C99.7787 305.532 100.43 298.213 101.497 290.961C102.817 281.966 104.055 272.907 106.285 264.108C108.799 254.205 112.331 244.546 115.532 234.818C116.172 232.88 117.329 231.109 118.248 229.257C118.588 229.285 118.925 229.31 119.264 229.338C119.118 231.761 119.193 234.218 118.782 236.598ZM38.8261 242.908C47.9189 242.051 56.9542 240.545 65.9885 239.157C77.5035 237.387 89.0627 236.375 100.723 236.704C101.712 236.733 102.689 237.257 103.671 237.549C102.887 238.124 102.186 238.926 101.303 239.235C94.6612 241.569 88.1123 244.333 81.2854 245.941C72.9452 247.907 64.409 249.358 55.8727 250.122C49.5578 250.689 43.0455 250.251 36.7344 249.433C30.9453 248.685 25.3003 246.85 19.6082 245.439C18.6181 245.192 17.7059 244.662 16.7574 244.262C16.7992 244.028 16.8408 243.791 16.8826 243.556C24.2008 243.374 31.5567 243.592 38.8261 242.908ZM179.875 216.903C179.792 217.584 179.583 218.284 179.274 218.897C178.921 219.602 178.389 220.222 177.932 220.88C177.487 220.146 176.76 219.449 176.641 218.666C174.87 206.941 172.949 195.23 171.545 183.463C170.382 173.726 170.154 163.878 168.915 154.151C168.301 149.317 166.333 144.652 165.023 139.895C164.854 139.278 164.969 138.584 164.953 137.925C165.962 138.392 167.325 138.601 167.918 139.374C170.733 143.054 173.753 146.67 175.937 150.709C181.242 160.531 183.085 171.258 183.252 182.267C183.328 187.162 183.037 192.06 182.911 196.956C182.686 196.932 182.457 196.906 182.229 196.881C181.45 203.557 180.68 210.232 179.875 216.903ZM128.45 58.3195C133.327 53.9425 138.583 49.8839 144.077 46.2796C149.323 42.8364 154.927 39.8011 160.674 37.2271C169.158 33.4244 177.797 29.8804 186.586 26.822C192.747 24.6763 199.275 23.5458 205.626 21.9138C207.792 21.3549 209.913 20.629 212.069 20.0212C212.585 19.8752 213.154 19.9007 213.699 19.8457C213.344 20.3502 213.111 21.0815 212.621 21.3275C209.23 23.0441 205.786 24.659 202.361 26.3132C192.192 31.2198 181.759 35.6699 171.929 41.1627C160.925 47.3098 150.573 54.5714 139.736 61.0203C134.117 64.3618 128.071 67.0199 122.191 69.9297C120.355 70.8387 118.425 71.5673 116.538 72.3769C116.306 72.1144 116.074 71.8547 115.842 71.5949C120.019 67.1425 123.916 62.3892 128.45 58.3195ZM169.502 104.176C169.473 104.252 169.466 104.37 169.412 104.394C169.314 104.441 169.19 104.432 169.075 104.447C164.919 106.577 160.977 109.449 156.56 110.696C145.514 113.814 134.359 116.841 123.043 118.688C111.429 120.586 99.9229 122.571 88.96 126.834C86.1337 127.935 83.6252 129.817 80.9488 131.306C80.3828 131.62 79.7307 131.784 79.1164 132.016C79.4177 131.39 79.5691 130.605 80.0492 130.162C86.4034 124.273 93.5158 119.431 101.556 116.044C107.845 113.396 114.139 110.619 120.677 108.717C126.031 107.157 131.723 106.41 137.318 106.009C147.904 105.248 158.528 104.993 169.14 104.528C169.261 104.411 169.381 104.292 169.502 104.176ZM138.466 187.926C138.492 187.967 138.515 188.011 138.54 188.053C130.936 190.383 123.412 193.071 115.688 194.99C102.184 198.343 88.638 201.637 74.9513 204.134C67.5511 205.483 59.8294 205.172 52.2483 205.492C51.5886 205.517 50.8866 204.652 50.2047 204.203L50.2246 204.39L50.1793 204.226C56.7319 202.403 63.323 200.695 69.8337 198.732C79.8621 195.708 89.7219 192.057 99.876 189.536C107.872 187.55 116.167 186.352 124.397 185.823C129.021 185.527 133.781 187.301 138.478 188.142C138.474 188.07 138.47 187.998 138.466 187.926ZM10.316 326.149C10.455 325.938 10.5969 325.727 10.7383 325.513C15.4285 322.332 20.1184 319.149 24.8119 315.972C30.5421 312.093 36.3489 308.317 41.9884 304.317C49.4068 299.049 57.0131 293.969 63.956 288.139C71.4582 281.842 78.2879 274.771 85.4214 268.048C85.6583 267.824 86.0012 267.709 87.3064 266.973C85.1613 271.239 83.8211 274.877 81.6725 277.974C77.6995 283.689 73.782 289.6 68.8575 294.478C63.8626 299.423 57.9599 303.642 51.9458 307.402C44.5973 311.995 36.9015 316.152 29.0147 319.787C23.307 322.417 17.0475 323.886 11.0324 325.873C10.7947 325.966 10.5538 326.056 10.316 326.149ZM203.166 27.3711C203.134 27.4283 203.116 27.5033 203.069 27.5346C202.974 27.589 202.864 27.6201 202.762 27.6615C200.668 29.4781 198.578 31.2943 196.483 33.1053C191.007 37.8405 185.79 42.9073 179.989 47.2247C172.026 53.1527 164.062 59.3154 155.302 63.9163C144.124 69.7876 131.914 73.3973 119.119 74.552C118.821 74.5801 118.536 74.7405 117.952 74.1168C119.259 73.6236 120.572 73.152 121.867 72.6325C133.296 68.0317 143.094 60.7705 153.423 54.33C164.535 47.3982 176.122 41.1882 187.635 34.8932C192.53 32.2136 197.763 30.1232 202.841 27.7628C202.949 27.6342 203.059 27.5024 203.166 27.3711ZM199.294 79.0436C201.845 87.4418 203.724 96.0484 205.613 104.623C207.524 113.292 209.1 122.034 210.809 130.747C210.937 131.414 210.938 132.106 211.076 133.67C207.955 127.952 205.088 123.121 202.637 118.092C198.972 110.581 195.261 103.058 192.194 95.3031C188.732 86.5449 188.015 77.2632 189.008 67.9545C189.196 66.2075 190.962 64.6238 191.999 62.966C191.974 62.7209 191.946 62.4734 191.92 62.2255C192.067 62.3793 192.21 62.5334 192.356 62.6872C194.71 68.1274 197.583 73.4155 199.294 79.0436ZM60.2496 175.042C60.2253 174.99 60.2014 174.94 60.1799 174.887C66.0069 171.258 72.7275 170.744 79.2931 170.013C94.8268 168.283 110.411 166.984 125.94 165.243C133.385 164.408 140.755 162.963 148.157 161.792C148.787 161.631 149.413 161.468 150.04 161.307C150.042 161.421 150.051 161.632 150.04 161.634C149.406 161.706 148.77 161.756 148.134 161.812C147.046 162.991 146.182 164.531 144.857 165.292C132.848 172.18 119.445 173.942 105.926 175.067C100.359 175.529 94.751 175.749 89.1684 175.677C79.5198 175.552 69.8766 175.114 60.2344 174.807C60.2393 174.884 60.2447 174.965 60.2496 175.042ZM142.993 160.661C142.966 160.631 142.942 160.603 142.919 160.576C141.276 161.094 139.656 161.938 137.968 162.104C131.024 162.776 124.056 163.208 117.101 163.797C111.1 164.306 105.071 164.653 99.1221 165.523C87.8016 167.176 76.5258 169.114 65.2512 171.039C63.3934 171.357 61.6335 172.222 59.8275 172.834C59.7116 172.57 59.5986 172.306 59.4831 172.045C64.7421 169.733 69.8631 167.038 75.2864 165.199C84.5442 162.056 93.8297 158.575 103.404 156.867C112.941 155.165 122.819 155.692 132.389 158.303C135.872 159.251 139.473 159.771 143.02 160.484C143.011 160.544 143.002 160.601 142.993 160.661ZM139.863 189.894C139.874 189.87 140.241 190.014 140.444 190.082C140.074 190.38 139.709 190.682 139.34 190.979C135.276 198.029 131.396 205.189 127.06 212.074C125.468 214.603 119.062 215.254 116.436 213.805C116.131 213.636 115.734 213.13 115.801 212.89C116.819 209.06 114.101 208.709 111.009 208.432C115.271 206.302 119.328 204.646 122.98 202.362C127.84 199.318 132.379 195.784 137.069 192.478C137.811 191.956 138.621 191.528 139.399 191.057C139.547 190.664 139.684 190.269 139.863 189.894ZM234.176 13.1237C234.077 13.0278 233.976 12.935 233.878 12.8391C234.066 12.7808 234.258 12.7249 234.446 12.6666C237.757 9.98917 241.269 7.51682 244.318 4.57782C247.587 1.42583 248.236 4.68716 249.525 6.31211C249.76 6.61335 249.367 7.93804 248.99 8.07696C244.503 9.72314 239.966 11.2417 235.432 12.76C235.135 12.8577 234.735 12.6565 234.382 12.5968C234.315 12.7704 234.245 12.947 234.176 13.1237ZM114.158 94.742C114.17 94.8102 114.179 94.8788 114.192 94.9497C114.256 94.9021 114.318 94.8522 114.383 94.8073C114.795 94.2841 115.215 93.7542 115.635 93.2244C122.507 87.8978 130.229 83.9555 138.395 81.1271C145.761 78.5742 153.48 77.2477 161.451 77.7332C165.822 78.0005 170.238 77.5529 174.634 77.5489C175.369 77.5498 176.105 78.1674 176.842 78.5002C176.833 78.2223 176.823 77.9445 176.816 77.6662C176.994 77.6986 177.176 77.7333 177.354 77.7657C177.162 77.9891 176.969 78.2156 176.777 78.439C168.907 79.8887 161.02 81.2987 153.144 82.7741C150.819 83.2088 148.509 83.7391 146.229 84.3604C139.82 86.1089 133.401 87.828 127.045 89.7566C123.829 90.7301 120.761 92.1669 117.589 93.2965C117.01 93.5011 116.254 93.2182 115.581 93.1618C115.153 93.7373 114.728 94.3097 114.3 94.8853C114.253 94.8383 114.207 94.7886 114.158 94.742ZM139.235 196.695C140.16 196.738 141.098 196.768 142.041 196.797C150.513 202.13 152.143 210.948 154.024 219.59C154.963 223.911 155.609 228.292 156.396 232.643C156.743 234.551 157.112 236.457 157.47 238.366C157.112 238.494 156.757 238.625 156.399 238.756C153.854 233.265 150.915 227.913 148.873 222.251C146.678 216.162 145.298 209.786 143.614 203.524C143.018 201.308 142.57 199.056 142.056 196.821C141.142 196.762 140.229 196.701 139.313 196.643C139.287 196.661 139.261 196.678 139.235 196.695ZM176.991 224.337C177.006 224.343 176.882 224.664 176.821 224.839C176.54 224.536 176.259 224.229 175.979 223.926C175.956 223.636 175.933 223.346 175.911 223.055C176.01 223.073 176.109 223.091 176.205 223.109C176.116 223.388 176.023 223.669 175.933 223.948C176.281 224.076 176.644 224.19 176.991 224.337ZM174.229 81.3399C174.234 81.3783 174.239 81.4166 174.247 81.4519C173.593 81.5576 172.923 81.6793 172.254 81.7982C168.772 83.7836 165.503 86.3077 161.792 87.6868C150.095 92.0272 137.719 93.311 125.374 94.5935C123.755 94.7621 122.152 95.0459 120.317 95.307C123.811 92.2621 135.881 87.7052 172.321 81.8703C172.936 81.7502 173.551 81.6301 174.167 81.51C174.188 81.4542 174.208 81.3984 174.229 81.3399ZM158.791 241.377C158.647 241.242 158.507 241.11 158.363 240.976C158.342 240.909 158.316 240.842 158.293 240.776C158.306 240.83 158.316 240.884 158.326 240.936C158.482 241.08 158.636 241.227 158.791 241.377ZM118.731 95.1949C118.694 95.13 118.656 95.0651 118.619 95.0003C118.577 95.0672 118.537 95.1311 118.498 95.1977C118.464 95.2385 118.425 95.2882 118.383 95.3356C118.439 95.2641 118.494 95.1926 118.547 95.1187C118.61 95.1438 118.671 95.1693 118.731 95.1949ZM165.794 124.913C165.794 124.913 165.732 125.105 165.729 125.103C167.226 120.964 168.722 116.823 170.221 112.684C172.788 105.599 175.352 98.515 177.917 91.4306C178.935 96.2428 179.812 100.878 179.662 105.481C179.383 114.138 181.866 122.039 185.305 129.796C186.907 133.409 188.93 136.911 189.96 140.675C190.788 143.701 190.1 147.093 190.624 150.234C191.896 157.855 193.479 165.423 194.937 173.01C195.303 174.916 195.88 176.546 193.49 178.091C192.462 178.754 192.463 181.71 192.856 183.436C193.065 184.361 195.345 185.666 196.252 185.392C197.334 185.066 197.95 183.24 198.699 182.164C197.194 182.527 196.035 182.808 194.877 183.086C194.603 181.771 194.329 180.457 194.055 179.142C195.582 179.315 197.111 179.487 198.571 179.65C198.15 178.432 197.435 177.011 197.181 175.514C196.174 169.576 195.387 163.603 194.366 157.666C193.51 152.687 192.443 147.745 191.471 142.787C191.373 142.429 191.273 142.071 191.192 141.707C191.19 141.696 191.388 141.642 191.492 141.609C191.455 142.024 191.418 142.442 191.376 142.864C191.792 143.035 192.406 143.088 192.598 143.392C195.99 148.726 199.403 154.049 202.6 159.496C203.113 160.369 202.48 161.837 202.579 163.016C202.709 164.57 202.882 166.166 203.432 167.601C203.52 167.832 205.642 167.318 206.825 167.149L206.904 167.267C205.293 166.538 202.952 166.196 204.889 163.593L204.825 163.538C205.896 163.483 206.97 163.428 208.041 163.374C208.068 164.626 208.097 165.878 208.123 167.131C208.249 167.279 208.377 167.422 208.505 167.569C210.732 164.691 210.636 162.432 207.819 161.834C205.066 161.248 204.354 159.541 203.433 157.51C202.539 155.535 201.418 153.65 200.287 151.792C198.538 148.916 196.564 146.164 194.919 143.234C191.666 137.438 188.39 131.645 185.503 125.672C184.318 123.218 184.114 120.312 183.464 117.608C183.264 117.121 183.063 116.631 182.862 116.144C182.793 115.553 182.724 114.965 182.654 114.377C182.85 114.873 183.046 115.366 183.239 115.86C183.416 116.384 183.593 116.908 183.767 117.432C186.658 121.498 189.456 125.632 192.489 129.59C193.55 130.979 194.351 131.882 194.137 133.998C193.658 138.722 197.066 140.892 200.796 138.748C199.392 138.051 197.764 137.578 196.663 136.562C196.071 136.018 196.092 134.452 196.385 133.512C196.563 132.941 198.057 132.175 198.494 132.394C199.53 132.911 200.752 133.833 201.04 134.83C201.387 136.035 200.848 137.485 200.691 138.832C201.274 137.395 202.69 135.615 202.254 134.595C201.57 132.988 199.733 131.776 198.199 130.635C197.436 130.068 195.869 130.353 195.329 129.715C192.913 126.851 190.6 123.884 188.5 120.792C183.308 113.141 180.877 104.646 180.179 95.4815C179.657 88.5942 182.355 78.3297 186.628 73.806C186.826 84.2251 188.928 94.3125 193.772 103.768C197.547 111.143 201.488 118.434 205.179 125.844C207.648 130.8 209.778 135.915 212.146 140.921C212.574 141.825 213.437 142.532 214.098 143.327C214.737 142.548 215.661 141.859 215.961 140.968C216.777 138.558 217.762 136.086 217.905 133.595C218.437 124.291 219.046 114.963 218.895 105.654C218.709 94.2031 216.263 83.053 208.691 74.0097C204.961 69.5575 199.567 66.4549 194.987 62.6702C194.213 62.0296 193.038 60.5793 193.248 60.2614C196.173 55.8092 199.319 51.4953 202.359 47.1144C202.514 46.8931 202.218 46.3738 202.131 45.9917C202.042 46.1067 201.954 46.2187 201.868 46.3334C201.892 46.2855 201.907 46.2222 201.949 46.1971C202.028 46.1504 202.121 46.1269 202.207 46.0905C205.179 41.7912 208.151 37.4948 211.467 32.7007C211.128 38.2247 211.283 42.7234 210.485 47.0519C209.333 53.3084 211.342 58.2133 215.27 62.9716C218.256 66.5895 220.619 70.7081 223.131 74.6843C223.447 75.1815 223.247 76.5113 222.8 76.8633C220.503 78.6844 219.48 83.0842 220.977 85.5555C222.341 87.8044 226.277 89.7368 227.809 88.907C230.426 87.4876 231.608 81.6516 229.723 79.1727C225.2 73.231 220.472 67.4336 216.169 61.3486C214.051 58.3561 212.692 54.8506 210.988 51.5774C213.406 53.4585 214.698 56.0518 216.745 57.7808C222.467 62.6099 228.538 67.033 234.398 71.7071C238.76 75.1884 242.443 79.2393 244.592 84.4552C245.117 85.7315 245.585 86.429 243.405 86.7804C239.977 87.3351 238.873 89.5405 239.586 92.9107C240.172 95.6751 243.126 98.3482 245.6 97.9441C248.635 97.4522 248.839 94.9077 248.954 92.5255C248.997 91.6545 248.753 90.771 248.641 89.8925L248.708 89.8418C248.566 90.8794 248.746 92.1314 248.209 92.9055C247.327 94.1745 245.978 95.1337 244.824 96.2236C243.788 95.0398 242.387 93.9988 241.827 92.6295C241.386 91.5488 241.505 89.5931 242.236 88.8827C243.008 88.1391 244.803 88.3045 246.153 88.2886C246.787 88.2833 247.426 88.7882 248.064 89.0614L248.018 89.101C247.532 86.8676 247.423 84.4675 246.492 82.4296C243.661 76.2261 238.481 71.9481 233.176 67.8596C228.275 64.0808 223.243 60.4616 218.413 56.5981C217.039 55.5007 216.173 53.7948 215.436 52.8368C218.754 53.2092 221.976 53.8343 225.205 53.8864C233.645 54.0197 242.092 53.7838 250.528 53.9734C252.447 54.0166 254.7 54.4456 255.299 57.239C255.49 58.1322 257.35 58.6829 258.446 59.3899C259.217 58.0405 260.303 56.7446 260.57 55.3055C260.651 54.8593 258.569 53.6821 257.347 53.4298C255.103 52.9606 252.764 52.9253 250.463 52.7091C244.781 52.1818 239.108 51.43 233.413 51.2031C229.249 51.037 225.018 52.0017 220.888 51.6637C215.542 51.226 211.925 46.1002 212.211 40.8539C212.766 30.6957 218.551 23.5584 226.043 17.3965C226.652 16.8948 227.895 17.1413 228.846 17.0384C228.91 16.8793 228.976 16.7199 229.042 16.5604C229.128 16.6664 229.214 16.7751 229.3 16.8838C229.128 16.9121 228.958 16.94 228.785 16.9656C229.456 17.0865 230.243 17.4936 230.775 17.284C235.431 15.4342 240.045 13.4784 244.667 11.5493C247.007 10.574 249.366 9.63529 251.661 8.56535C252.124 8.35085 252.728 7.31116 252.611 7.16465C250.807 4.94311 249.137 2.47776 246.843 0.881717C246.264 0.477866 243.634 2.90934 241.938 4.02881C241.539 4.29353 241.089 4.48391 240.707 4.76872C237.502 7.1532 234.309 9.5499 231.111 11.9446C230.979 12.5202 230.85 13.0955 230.721 13.6707C230.566 13.8279 230.412 13.9851 230.257 14.145C230.436 14.0154 230.614 13.8859 230.796 13.7586C230.897 13.1479 230.998 12.5318 231.101 11.9125C229.284 13.045 227.511 14.2554 225.634 15.2787C224.749 15.7609 223.674 16.0392 222.659 16.131C220.563 16.3234 218.374 16.0116 216.356 16.4727C211.008 17.699 205.678 19.0514 200.444 20.6758C189.63 24.0262 178.736 27.2167 168.146 31.1683C157.575 35.1146 148.028 41.0475 138.703 47.3754C128.269 54.458 119.362 62.8438 112.649 73.4028C112.23 74.0637 112.421 75.2974 112.726 76.1254C112.884 76.5512 113.949 76.9552 114.546 76.885C126.433 75.5036 138.055 73.3113 149.164 68.5126C163.355 62.3813 175.411 53.3684 187.004 43.5402C193.924 37.6686 200.788 31.6842 208.141 26.3698C212.349 23.3284 217.481 21.5221 222.198 19.1618C222.218 19.0978 222.237 19.0337 222.257 18.9697C222.263 19.0109 222.272 19.0544 222.285 19.0889C215.01 27.98 207.753 36.8995 200.413 45.749C199.639 46.6828 198.407 47.2888 197.313 47.927C192.303 50.8533 187.249 53.6851 184.132 58.8521C183.139 60.4985 182.131 61.9907 179.332 60.8799C176.861 59.8963 172.814 62.665 172.397 65.1038C172.021 67.2804 172.313 69.207 175.255 69.7825C178.405 70.3977 179.962 68.8835 181.113 66.4206C180.622 66.5355 180.128 66.6481 179.637 66.7602L179.705 66.8238C178.146 66.7025 176.584 66.5817 175.025 66.4604C175.552 65.428 175.856 64.1569 176.666 63.4167C177.865 62.3209 178.985 62.4776 179.474 64.3839C179.671 65.1591 180.479 65.7839 181.015 66.4754C181.43 66.3008 182.035 66.2491 182.218 65.9458C183.793 63.3796 184.929 60.4526 186.9 58.2391C189.751 55.0359 193.193 52.3412 196.383 49.4284C196.595 49.6657 196.804 49.9033 197.016 50.1406C192.503 58.3944 187.992 66.6479 183.482 74.9014C183.551 74.9063 183.617 74.9142 183.687 74.9218C183.644 74.9387 183.598 74.956 183.561 74.9776C180.256 75.223 176.904 75.9129 173.641 75.6169C163.753 74.7169 153.831 74.9042 144.308 77.2331C131.13 80.4564 119.579 87.3177 108.867 95.45C108.184 95.9671 107.813 96.8757 107.298 97.6023C108.238 97.8831 109.224 98.5099 110.11 98.3931C123.156 96.6442 136.283 95.2781 149.193 92.8187C159.217 90.9095 169.219 88.2132 177.205 81.1657C178.159 80.3225 179.675 80.0866 180.931 79.5695C180.945 79.3807 180.959 79.1918 180.97 79.0006C181.09 79.0462 181.209 79.089 181.329 79.1319C181.168 79.2452 181.008 79.3612 180.85 79.4769C177.914 86.6968 175.023 93.9303 171.963 101.097C171.649 101.833 170.347 102.577 169.475 102.611C161.196 102.92 152.897 102.863 144.629 103.323C131.559 104.048 118.615 105.563 106.54 111.103C96.2332 115.833 86.4268 121.328 78.2394 129.209C77.1932 130.215 76.7598 131.829 76.0427 133.16C77.6014 133.589 79.1492 134.063 80.7285 134.413C81.2888 134.535 81.9259 134.387 82.5156 134.287C91.2111 132.815 99.9301 131.452 108.594 129.814C120.197 127.621 131.909 125.758 143.275 122.687C149.546 120.99 155.372 117.395 161.079 114.12C164.441 112.192 167.178 109.211 169.986 106.878C167.463 114.51 164.858 122.446 162.189 130.359C161.97 131.007 161.408 131.785 160.806 132.026C157.768 133.244 154.699 134.399 151.578 135.388C148.793 136.271 146.244 136.674 143.073 135.403C138.88 133.719 134.015 133.732 129.593 132.491C126.269 131.559 122.516 133.543 119.392 130.642C118.753 130.045 115.834 131.138 114.53 132.15C113.763 132.745 113.537 135.081 114.118 135.961C114.686 136.819 116.712 137.32 117.886 137.059C119.021 136.806 119.889 135.386 120.874 134.477C120.109 134.706 119.338 135.126 118.575 135.106C117.733 135.089 116.899 134.671 116.06 134.427C116.407 133.737 116.6 132.654 117.136 132.454C117.759 132.224 118.755 132.635 119.45 133.015C120.009 133.318 120.363 133.989 120.814 134.494C123.09 134.548 125.372 134.465 127.621 134.699C131.731 135.13 135.823 135.71 139.909 136.325C140.618 136.432 141.253 137.016 141.923 137.377C141.255 137.736 140.629 138.212 139.918 138.425C138.677 138.798 137.394 139.196 136.11 139.259C130.591 139.523 125.177 142.555 119.492 139.661C117.987 138.894 113.767 141.872 113.901 143.493C114.096 145.832 115.545 147.346 118.143 147.219C119.401 147.16 120.643 146.834 121.89 146.628C120.893 146.271 119.741 146.11 118.938 145.507C118.043 144.829 117.46 143.75 116.741 142.846C117.846 142.48 119.322 141.495 119.981 141.875C121.284 142.624 122.134 144.131 123.57 145.784C122.604 142.182 124.904 142.658 126.963 142.479C129.905 142.228 132.825 141.724 135.748 141.272C138.981 140.771 142.205 140.204 145.433 139.664C145.464 139.495 145.494 139.321 145.528 139.152C145.643 139.223 145.761 139.297 145.877 139.371C145.704 139.444 145.529 139.517 145.358 139.593C142.438 142.571 139.569 145.6 136.544 148.472C136.035 148.955 134.566 149.16 134.025 148.798C131.634 147.201 129.733 148.386 128.479 149.995C126.951 151.952 128.571 154.03 130.27 154.423C131.795 154.778 133.824 153.715 135.414 152.878C136.352 152.386 136.762 151.017 137.585 150.213C141.024 146.849 144.651 143.661 147.976 140.194C151.493 136.53 155.946 135.938 160.651 135.82C160.646 135.74 160.643 135.657 160.638 135.576C160.66 135.635 160.682 135.691 160.709 135.743C159.483 139.594 158.36 143.488 156.989 147.295C155.558 151.268 153.916 155.172 152.27 159.068C152.078 159.52 151.194 160.069 150.763 159.978C148.761 159.552 146.84 158.739 144.83 158.384C138.139 157.203 131.344 156.487 124.738 154.97C116.372 153.055 108.058 153.678 99.9616 155.406C91.5662 157.198 83.2967 159.848 75.252 162.85C68.6181 165.326 62.3599 168.799 56.0243 171.998C55.0819 172.474 54.6248 173.874 53.9439 174.845C54.915 175.452 55.8565 176.528 56.8574 176.583C64.1937 176.99 71.5413 177.334 78.8859 177.428C95.2005 177.638 111.511 177.195 127.454 173.488C136.104 171.477 144.773 168.979 151.098 162.092C151.528 162.027 151.957 161.962 152.387 161.897L152.342 161.716C152.342 161.716 152.462 161.826 152.47 161.822C152.007 161.908 151.541 162 151.067 162.09C151.149 162.646 151.461 163.286 151.285 163.747C148.468 171.125 145.648 178.5 142.617 185.794C142.381 186.36 140.512 186.674 139.549 186.463C137.953 186.115 136.534 184.937 134.94 184.644C124.712 182.767 114.526 183.62 104.548 186.031C96.627 187.946 88.8886 190.586 81.0824 192.94C76.8267 194.224 72.601 195.601 68.3532 196.9C61.9067 198.874 55.4439 200.792 49.0117 202.808C48.2121 203.059 47.5641 203.772 46.8466 204.269C47.4192 204.958 47.8471 205.962 48.5892 206.289C58.8368 210.807 69.6559 212.765 80.8441 213.159C90.6939 213.506 100.156 211.545 108.871 208.887C108.753 210.6 107.962 212.716 108.715 213.829C109.422 214.88 111.734 214.991 113.385 215.304C115.206 215.648 117.075 215.751 118.923 215.959C118.924 216.342 118.928 216.724 118.929 217.106C114.642 218.245 110.342 219.353 106.068 220.539C104.746 220.908 103.941 221.383 103.492 219.312C102.953 216.815 99.5276 215.868 97.4485 217.208C95.5735 218.418 94.3683 220.486 95.5488 222.08C96.4153 223.253 99.1924 223.996 100.75 223.587C108.893 221.448 116.918 218.881 124.441 216.623C124.329 216.802 123.733 217.916 122.979 218.912C120.161 222.632 117.177 226.235 114.485 230.037C112.474 232.878 111.202 234.037 107.116 231.929C99.2787 227.886 90.2578 228.77 81.7682 229.626C72.2345 230.589 62.8558 232.974 53.3651 234.458C39.3931 236.639 25.3754 238.569 11.3798 240.619C10.515 240.747 9.66935 241.014 8.81471 241.216C9.43442 242.042 9.86965 243.224 10.6996 243.631C14.8138 245.657 18.9238 247.756 23.232 249.308C31.7375 252.369 40.6988 252.941 49.6457 252.827C55.1833 252.756 60.7783 252.315 66.2204 251.361C74.3889 249.928 82.4858 248.055 90.5272 246.047C93.6616 245.263 96.5951 243.657 99.5722 242.327C102.112 241.194 104.591 239.921 107.094 238.709C105.989 240.839 104.764 242.558 103.276 244.019C99.7583 247.466 96.6506 251.831 92.4066 253.947C84.012 258.134 75.0251 261.219 66.153 264.414C62.5319 265.717 58.3876 267.273 54.8075 266.715C46.0969 265.356 37.5643 262.864 28.9901 260.714C27.8109 260.417 26.3416 260.183 27.1424 257.864C27.9726 255.469 24.3534 251.385 21.8205 251.428C19.4609 251.468 17.7945 252.642 17.4978 255.213C17.1521 258.195 18.9246 260.267 22.4894 260.839C24.2297 261.118 26.0733 261.051 27.72 261.582C32.4223 263.101 37.0177 264.941 41.7175 266.463C44.058 267.218 46.5402 267.552 49.8668 268.276C47.0557 268.718 45.3342 269.054 43.5943 269.255C38.7759 269.817 33.9475 270.328 29.1242 270.854C27.9417 271.28 26.5458 272.31 25.621 271.999C23.902 271.419 22.4481 270.072 20.9468 268.961C20.8802 268.911 21.3559 267.71 21.7322 267.61C23.8537 267.057 26.1009 266.258 27.694 268.684C28.1864 269.431 28.6839 270.175 29.1854 270.927C29.883 267.044 27.1486 264.848 22.655 265.682C19.8076 266.214 17.9836 268.377 19.0527 270.26C20.3265 272.515 22.2564 274.095 25.175 273.772C29.05 273.345 32.9502 273.041 36.7926 272.418C43.731 271.292 50.6372 269.972 58.0181 268.648C57.3076 269.3 56.9648 269.789 56.4925 270.018C47.7745 274.276 39.049 278.521 30.3001 282.719C28.628 283.519 27.2733 284.038 26.5982 281.23C25.9642 278.597 22.2237 277.139 19.9521 278.091C17.3461 279.18 15.4942 280.683 16.7311 283.956C17.9242 287.118 19.2398 287.787 23.5919 286.751C22.5376 286.264 21.4576 286.088 20.9507 285.463C20.0604 284.366 19.5226 282.996 18.8384 281.741C20.2198 281.188 21.7176 279.988 22.9625 280.204C26.5573 280.828 25.6513 283.501 25.0088 285.875L24.937 285.786C27.6106 285.004 30.3254 284.337 32.9519 283.419C40.5572 280.762 47.9919 277.753 54.5717 273.012C57.3197 271.029 59.9769 268.694 63.0627 267.431C71.9046 263.807 80.9443 260.651 89.9074 257.31C90.2417 257.258 90.5761 257.206 90.9108 257.156C91.2212 256.783 91.5284 256.408 91.8359 256.035C91.8099 256.094 91.7842 256.156 91.7586 256.218C91.7414 256.176 91.7242 256.133 91.7118 256.085C91.4471 256.396 91.1747 256.714 90.9094 257.042C90.5648 257.123 90.2167 257.2 89.8615 257.266C89.0555 261.23 86.2986 263.274 82.6528 264.667C79.456 265.889 76.3234 267.309 73.2846 268.873C60.1577 275.643 48.6935 284.765 37.4488 294.076C25.5215 303.951 14.0205 314.32 2.43065 324.58C1.37748 325.515 1.0387 327.217 0.366603 328.565C1.97348 328.95 3.7504 329.975 5.16132 329.616C11.374 328.033 17.6522 326.472 23.5939 324.138C41.7766 317 58.6953 307.805 72.2517 293.534C78.8957 286.54 84.7051 279.065 87.5304 269.668C88.5178 266.384 89.6497 262.846 91.7631 260.24C97.4839 253.197 103.769 246.594 109.83 239.817C110.398 239.178 110.955 238.533 111.519 237.889C111.421 238.837 111.459 239.82 111.204 240.722C108.445 250.582 105.227 260.337 102.975 270.303C101.158 278.352 100.162 286.623 99.3994 294.849C98.5122 304.389 98.1789 313.985 97.869 323.564C97.8246 324.985 98.997 327.393 100.046 327.657C101.308 327.974 103.697 326.883 104.455 325.7C108.292 319.721 112.315 313.754 115.226 307.327C119.848 297.124 122.12 286.207 123.807 275.143C125.971 260.943 125.42 246.97 122.089 233.005C121.397 230.093 120.797 226.42 122.005 223.975C124.288 219.35 127.915 215.364 130.295 212.064C130.527 221.862 130.763 232.48 131.04 243.098C131.103 245.509 132.075 248.198 131.298 250.282C128.4 258.083 128.394 266.168 129.443 274.004C130.814 284.261 133.337 294.41 135.998 304.443C136.815 307.515 136.113 308.607 133.749 309.903C131.909 310.913 131.245 315.35 132.367 317.513C133.526 319.744 136.55 320.725 139.093 319.698C143.092 318.08 143.917 312.093 140.616 308.776C139.807 307.961 138.716 307.181 138.391 306.185C137.39 303.115 136.489 299.988 135.921 296.816C134.12 286.75 132.187 276.691 130.949 266.554C130.472 262.656 131.732 258.557 132.125 255.172C134.952 262.367 137.339 270.187 141.067 277.333C143.731 282.439 147.958 286.851 151.975 291.134C153.449 292.71 154.114 293.451 153.649 295.729C153.279 297.539 154.16 300.254 155.51 301.522C156.48 302.432 159.665 302.334 160.919 301.426C163.089 299.859 164.331 297.267 162.95 294.339L163.006 294.248C162.244 299.49 160.278 300.989 156.049 299.555L156.023 299.433L156.136 299.51C155.978 298.147 155.168 296.202 155.791 295.534C157.41 293.788 159.475 292.014 162.344 293.442L162.24 293.478C162.043 290.752 159.97 290.93 158.416 291.612C156.061 292.648 154.785 291.415 153.426 290.075C152.506 289.175 151.759 288.109 150.856 287.19C144.362 280.606 140.437 272.651 137.891 263.954C137.753 263.486 137.622 263.015 137.49 262.547C138.11 262.769 138.884 262.835 139.322 263.243C141.245 265.047 142.797 267.38 144.987 268.736C152.137 273.165 159.931 275.982 168.506 276.117C171.312 276.161 174.12 275.841 176.929 275.689C176.483 275.597 175.988 275.595 175.599 275.395C174.454 274.809 173.151 274.311 172.355 273.405C172.098 273.112 173.029 271.097 173.756 270.859C174.906 270.481 176.34 270.935 177.655 271.038C177.479 272.415 177.315 273.793 177.119 275.167C177.088 275.38 176.916 275.573 176.809 275.772C177.63 275.016 178.977 274.356 179.135 273.489C179.345 272.322 179.045 270.592 178.247 269.813C175.645 267.277 172.069 268.226 170.576 271.808C169.919 273.385 169.416 274.429 167.381 274.102C156.472 272.357 146.686 268.716 138.957 260.355C136.304 257.486 134.794 254.561 134.218 251.003C132.248 238.807 131.518 226.585 132.897 214.233C133.544 208.445 134.555 203.025 139.056 198.07C139.016 200.417 139.249 202.282 138.912 204.043C137.67 210.532 138.139 216.946 140.097 223.155C142.549 230.919 146.448 238.163 152.547 243.645C156.295 247.012 161.347 249.007 165.913 251.443C166.392 251.698 167.538 250.751 168.375 250.362C167.823 249.86 167.313 249.301 166.708 248.868C165.679 248.129 164.054 247.701 163.62 246.734C161.731 242.539 159.71 238.306 158.611 233.878C156.85 226.777 156.255 219.383 154.276 212.353C152.372 205.583 149.741 198.865 142.303 195.658C140.993 195.093 139.928 194.234 141.045 192.393C142.651 189.739 144.135 186.984 145.347 184.136C148.443 176.862 151.496 169.562 154.295 162.173C156.086 157.443 157.394 152.537 158.919 147.711C159.638 151.086 159.869 154.413 160.077 157.744C160.844 169.866 162.419 181.857 165.757 193.593C167.265 198.885 168.482 204.257 170.006 209.541C171.584 215.017 173.344 220.44 175.121 225.853C175.336 226.503 176.197 227.434 176.699 227.395C177.488 227.342 178.482 226.742 178.926 226.078C179.533 225.166 179.848 224 180.048 222.901C181.622 214.301 183.562 205.735 184.531 197.066C185.285 190.332 185.105 183.452 184.801 176.659C184.454 168.875 182.62 161.385 179.545 154.088C176.409 146.649 172.094 140.334 165.543 135.438C164.614 134.746 163.794 133.126 163.909 132.033C164.161 129.672 165.047 127.375 165.674 125.051L165.794 124.913Z" />
</svg>
