<svg width="366" height="366" viewBox="-71 0 366 366" fill="currentColor"  xmlns="http://www.w3.org/2000/svg">
<g>
<path d="M-44.0998 181.78C-39.0677 191.781 -35.0707 203.457 -26.5598 211.581C-26.2509 211.893 -24.3981 213.928 -21.7448 216.567C-19.0125 219.123 -15.5508 222.365 -12.3078 225.401C-9.15687 228.508 -5.99423 231.163 -4.13112 232.903C-2.28033 234.658 -1.71349 235.495 -3.47031 234.636C-22.2211 221.887 -38.3086 202.722 -44.0998 181.78ZM7.55753 220.053C8.03681 220.115 7.83648 220.312 7.75324 220.49C7.90644 220.498 7.60334 220.182 7.55753 220.053ZM69.2921 291.562C70.1274 291.975 70.8652 292.445 71.0702 293.246L71.1332 293.216C70.1477 292.971 69.5262 292.388 69.0791 291.661L69.2921 291.562ZM8.8998 222.586C8.22664 221.977 7.74702 221.313 7.82384 220.491L7.75324 220.49C8.56942 221.059 8.91093 221.764 8.83532 222.593L8.8998 222.586ZM71.0702 293.246C71.6387 293.305 72.4599 294.054 71.9535 294.28C71.5855 293.958 70.9513 293.719 71.1332 293.216L71.0702 293.246ZM8.83532 222.593C13.7369 230.123 18.015 238.322 22.771 246.219C28.1272 255.194 35.6751 263.417 44.0948 270.497L50.3743 275.956C52.5324 277.656 54.6844 279.348 56.8294 281.035C61.1049 284.453 65.2322 288.142 69.2921 291.562L69.0771 291.657L64.5468 288.281L60.0575 284.721C57.0488 282.38 54.0153 280.099 50.9757 277.843C47.9419 275.582 45.0572 272.98 42.118 270.565C39.2263 268.058 36.2459 265.746 33.5512 263.03C30.4444 260.064 27.7163 256.927 25.2614 253.711C24.0545 252.084 22.8446 250.526 21.8199 248.787C20.7886 247.058 19.8148 245.318 18.8772 243.573C17.0039 240.086 15.2884 236.595 13.6057 233.154C11.963 229.668 10.5316 226.028 8.8998 222.586L8.83532 222.593ZM92.0116 200.674C92.0944 200.238 92.1136 199.739 92.728 199.796L92.6981 199.744C92.5862 200.155 92.4742 200.566 91.9796 200.619L92.0116 200.674ZM91.9816 200.622L91.6074 201.221C91.3637 200.718 91.6595 200.673 92.0116 200.674L91.9816 200.622ZM94.293 197.68C94.1505 198.712 93.2698 199.227 92.728 199.796C92.8405 198.745 93.4991 198.142 94.2684 197.642L94.293 197.68ZM94.2684 197.642C96.3915 193.938 99.1826 190.485 102.192 187.483C105.204 184.485 108.407 181.988 111.669 179.854C111.934 180.204 111.429 180.538 111.199 180.796C109.604 182.563 107.957 184.348 106.28 186.024C102.284 189.698 98.4776 194.062 94.293 197.68L94.2684 197.642ZM65.311 174.881C65.6594 174.546 66.5229 174.778 66.4867 175.37C66.0287 175.334 65.647 175.149 65.3045 174.825L65.311 174.881ZM-36.743 99.436L-39.1462 90.5506C-40.9054 84.6808 -42.0292 78.6353 -43.4481 72.6297C-43.8255 70.1323 -40.4654 72.593 -36.9613 75.7419C-35.2076 77.3222 -33.4155 79.0798 -32.0236 80.5585C-30.6509 82.0474 -29.4659 83.211 -29.2794 83.7394C-24.5968 89.5948 -19.8531 94.7634 -14.2906 98.9657C-11.5851 101.09 -8.89097 103.059 -6.12296 104.829C-3.21847 106.536 -0.303024 108.075 2.60605 109.459C1.62443 110.74 -1.55748 111.048 -3.14894 111.67C-11.0269 113.112 -26.9484 115.513 -33.8072 108.155C-34.7973 105.246 -35.8446 102.363 -36.743 99.436ZM179.897 256.553C176.762 257.164 173.62 258.034 170.469 258.601C167.314 259.156 164.152 259.778 160.97 260.476C159.748 260.715 158.517 260.955 157.281 261.2C156.046 261.434 154.806 261.568 153.558 261.761C151.062 262.123 148.536 262.479 145.984 262.742C140.866 263.432 135.745 262.942 130.685 261.658C146.688 260.722 163.061 259.002 177.777 253.813C182.384 252.206 186.705 250.383 190.803 247.83C192.746 246.56 194.735 245.419 196.743 244.367C198.754 243.34 200.781 242.363 202.78 241.219C206.786 239 210.843 237.184 214.601 234.826C213.714 234.368 213.047 235.142 212.323 235.382C208.816 236.674 205.376 238.175 202.004 239.918C200.322 240.845 198.633 241.623 196.962 242.481C195.29 243.344 193.638 244.277 192 245.278C174.026 255.957 151.059 259.449 129.223 258.479C132.762 257.434 136.331 256.381 139.919 255.317C141.681 254.849 143.449 254.27 145.22 253.631L150.5 251.866C157.497 249.816 164.445 247.117 171.361 245.364C174.262 244.821 177.127 244.095 179.941 243.432C182.748 242.679 185.523 242.154 188.193 240.994C190.873 239.941 193.472 238.785 195.974 237.469C197.218 236.799 198.447 236.133 199.633 235.343C200.814 234.498 201.963 233.605 203.077 232.665C205.9 230.49 208.82 228.507 211.814 226.731C214.76 224.715 217.784 222.939 220.894 221.483C224.044 220.155 227.103 218.517 230.353 217.54C231.971 217.024 233.62 216.602 235.299 216.283C236.969 215.939 238.603 215.5 240.316 215.282C243.109 214.851 243.053 216.503 242.306 218.754C241.567 221.051 240.653 223.266 239.583 225.404C238.508 227.519 237.208 229.365 235.803 231.23C234.393 233.067 232.841 234.825 231.168 236.507C230.331 237.347 229.464 238.167 228.57 238.966C227.667 239.738 226.713 240.4 225.746 241.094C223.808 242.45 221.767 243.73 219.64 244.931C217.513 246.112 215.326 247.341 213.009 248.133C210.707 249.008 208.344 249.803 205.938 250.533C203.528 251.251 201.09 251.991 198.583 252.323C192.383 253.716 186.175 255.43 179.897 256.553ZM129.698 265.401C153.507 269.25 177.561 272.433 201.927 270.754C205.515 270.437 209.212 269.849 212.857 269.202C214.677 268.855 216.477 268.452 218.224 267.954C219.969 267.42 221.635 266.632 223.227 265.807C221.711 266.108 220.189 266.413 218.66 266.714C217.114 266.911 215.565 267.102 214.009 267.296C210.906 267.671 207.784 268.045 204.65 268.425C201.522 268.79 198.348 268.772 195.194 268.945C192.036 269.019 188.886 269.303 185.731 269.162C182.582 269.026 179.434 268.89 176.295 268.755C174.73 268.671 173.173 268.618 171.618 268.497L166.974 267.907C163.905 267.488 160.849 267.069 157.817 266.655C154.797 266.198 151.838 265.399 148.908 264.764C151.881 264.415 154.833 264.205 157.793 263.725C160.733 263.213 163.69 262.702 166.651 262.189C172.529 261.402 178.366 259.805 184.177 258.901C187.089 258.505 189.973 257.731 192.868 257.231C195.764 256.692 198.665 256.253 201.579 255.926C204.47 255.4 207.377 254.971 210.315 254.681C213.244 254.352 216.241 254.356 219.204 254.038C222.09 253.709 224.989 253.493 227.904 253.353C229.357 253.266 230.839 253.283 232.283 253.156L236.632 252.788C240.31 252.496 244.053 252.136 247.769 251.519L258.848 249.044C262.614 248.317 266.19 247.023 269.9 246.053C273.569 244.987 277.388 244.235 281.029 243.087C289.948 240.949 293.507 241.639 293.37 244.133C293.248 246.616 289.437 250.895 283.985 255.609C281.219 257.858 277.952 259.986 274.608 262.141C272.933 263.204 271.228 264.248 269.528 265.255C267.818 266.218 266.063 266.995 264.383 267.799C261.011 269.364 257.828 270.707 255.148 271.7C252.484 272.737 250.219 273.061 248.836 273.189C244.13 273.846 239.605 275.107 235.023 276.092C230.435 277.039 225.885 278.178 221.332 279.338C216.744 280.248 212.133 281.081 207.516 281.815C205.211 282.236 202.886 282.395 200.554 282.485C198.226 282.594 195.899 282.637 193.574 282.599C170.624 282.926 148.976 275.048 129.856 265.43L129.698 265.401ZM132.219 245.983C134.56 244.223 136.907 242.532 139.246 240.9C141.592 239.22 143.901 237.794 146.242 236.047C148.542 234.389 150.853 232.722 153.175 231.051C155.456 229.392 157.697 227.855 159.907 226.152L166.401 220.846C168.511 219.07 170.559 217.319 172.535 215.506C174.514 213.545 176.42 211.57 178.238 209.569C179.738 207.922 181.414 206.279 183.211 204.675C185.005 203.073 186.901 201.195 188.875 199.543C190.847 197.842 192.897 196.24 194.973 194.664C197.021 192.914 199.098 191.253 201.183 189.718C202.227 188.949 203.271 188.213 204.312 187.513C205.35 186.787 206.35 185.944 207.361 185.224C209.382 183.743 211.383 182.424 213.358 181.289C215.319 180.118 217.146 178.824 218.994 177.924C220.81 176.944 222.663 176.356 224.335 175.699C231.229 173.512 232.961 176.981 232.212 181.82C231.494 186.659 228.163 193.261 225.772 196.392C223.619 199.198 221.25 202.033 218.578 204.379C215.89 206.662 213.012 208.833 210.021 210.965C196.976 219.563 183.88 228.679 170.327 239.014C168.057 240.612 165.63 242.129 163.071 243.531C160.516 244.912 157.823 246.296 155.066 247.132C149.553 248.897 143.602 250.427 137.797 250.09C139.498 249.344 141.171 248.575 142.818 247.792C144.468 246.969 146.109 245.998 147.716 245.09C150.933 243.236 154.051 241.337 157.076 239.423C160.105 237.488 163.07 235.198 165.949 233.121C168.832 230.923 171.639 229.066 174.397 226.686C179.911 222.127 185.215 218.04 190.427 213.568C191.732 212.504 193.039 211.467 194.344 210.468L196.303 208.992L198.242 207.392C200.829 205.286 203.435 203.334 206.098 201.569C202.801 203.076 199.664 204.939 196.6 207.084C193.506 209.008 190.472 211.093 187.456 213.464C184.448 215.947 181.415 218.04 178.356 220.544C175.293 222.97 172.191 225.686 169.008 227.974C165.826 230.376 162.561 232.85 159.174 235.311C155.803 237.604 152.325 239.74 148.692 241.858C146.88 242.891 145.018 243.981 143.139 244.892C141.267 245.754 139.352 246.584 137.398 247.369C135.444 248.153 133.447 248.891 131.411 249.575L128.321 250.56C127.285 250.838 126.252 251.043 125.202 251.261L125.25 251.426L125.265 251.316C127.58 249.543 129.895 247.769 132.219 245.983ZM131.276 229.245C135.405 224.137 139.357 218.705 143.811 214.137C145.727 212.032 147.68 210.289 149.698 208.274C151.677 206.374 153.675 204.46 155.672 202.546C157.626 200.665 159.524 198.785 161.297 196.833C163.084 194.733 164.746 192.547 166.226 190.228C166.531 189.753 167.854 187.381 166.501 188.379C161.681 195.535 155.541 200.742 149.212 206.749C142.98 212.23 136.532 218.249 131.462 225.922C128.828 229.245 125.963 232.638 122.736 235.718C119.526 238.733 115.875 241.722 111.897 243.435L111.73 243.663C111.704 243.504 111.818 243.506 111.945 243.488C116.925 234.356 121.976 224.877 129.63 217.635C132.23 214.954 134.214 211.785 136.173 208.631C138.151 205.378 140.107 202.108 142.534 199.308C144.157 197.334 145.862 195.562 147.644 194.021C149.424 192.51 151.297 191.186 153.303 189.895C156.464 187.948 159.288 185.635 161.856 183.111C164.443 180.436 166.794 177.402 168.981 174.424C169.995 172.903 171.228 171.424 172.565 170.063C173.902 168.611 175.343 167.164 176.787 165.955C178.231 164.731 179.682 163.696 181.057 162.916C182.438 162.198 183.716 161.356 184.873 161.07C187.169 160.397 188.935 161.084 189.512 163.694C190.058 166.316 189.481 170.834 186.333 178.072C183.55 184.214 178.88 188.084 175.688 194.184C172.468 200.452 167.874 204.795 162.974 209.562C160.519 211.994 158.018 214.08 155.577 216.422C153.135 218.755 150.756 221.269 148.589 224.114C147.764 225.118 146.9 226.101 145.993 227.026C145.097 227.902 144.159 228.739 143.184 229.54C141.227 231.14 139.107 232.589 136.821 233.898C130.501 237.256 124.553 241.722 117.284 243.174L117.259 243.315C117.419 243.281 117.414 243.247 117.243 243.224C122.806 239.215 127.161 234.257 131.276 229.245ZM2.32176 124.216C6.09398 125.262 9.37625 126.772 12.7151 128.374C16.0626 129.97 19.1623 131.856 22.0666 133.972C23.4809 135.062 24.9774 136.112 26.4686 137.18C27.9416 138.267 29.3768 139.402 30.7778 140.578C42.0203 149.841 53.0763 160.764 65.8558 166.851C66.7848 167.248 68.655 168.094 70.7508 169.218C72.8823 170.29 75.101 171.878 77.1949 173.078C81.2376 175.679 83.7112 178.97 79.2492 181.828C69.7803 185.44 59.7747 181.019 50.1379 177.781C37.0465 173.393 25.2604 164.497 14.1877 154.302C2.98442 144.1 -6.89547 132.049 -17.2756 120.233L-17.3702 120.32L-17.3331 120.212C-15.2626 120.861 -13.309 121.708 -11.453 122.711C-9.6027 123.718 -7.66172 124.777 -5.89354 126.003C-2.25192 128.397 0.876978 131.384 4.29155 134.245C7.72422 137.087 11.0014 140.082 14.3579 142.795C17.9179 145.355 21.4783 147.684 25.1386 149.386C32.5965 153.033 38.4932 158.755 44.8949 163.818C47.924 166.535 51.2992 168.767 54.649 170.756C56.3387 171.737 58.0095 172.676 59.7719 173.384C61.589 174.017 63.4327 174.512 65.3045 174.825L65.311 174.881C63.7927 174.314 62.2866 173.685 60.7871 173.014C59.2694 172.361 57.9337 171.417 56.5108 170.579C53.7346 168.796 50.8606 167.023 48.1991 164.925L40.3094 158.349C37.6583 156.135 35.2615 153.622 32.5817 151.365C28.871 148.503 25.4361 145.512 21.1904 143.566C15.414 141.443 10.6199 137.545 5.43389 133.725C4.11877 132.779 2.87935 131.771 1.68803 130.73C0.468744 129.705 -0.767016 128.689 -2.02373 127.694C-4.52357 125.698 -7.19819 123.831 -9.89477 122.091L-9.87324 121.985L-9.84796 122.116C-5.50658 122.45 -1.39453 123.135 2.32176 124.216ZM61.2878 222.125C64.4837 221.27 67.5493 220.21 70.4295 218.908C76.2061 216.28 81.1353 212.812 85.1351 207.856C79.8307 211.962 74.1733 215.095 67.7071 217.431C61.1762 219.874 54.3871 220.537 46.8254 219.844L46.7522 219.924L46.7724 219.843C54.679 218.477 60.957 214.856 66.4235 210.277C71.9868 205.515 76.7172 199.868 81.2571 194.386C90.3432 183.301 98.5268 173.412 109.03 169.744C114.657 168.375 119.601 162.968 124.526 159.968C127.583 158.346 129.042 158.414 129.458 159.861C129.866 161.295 129.244 163.995 128.104 167.062C125.86 173.192 121.289 180.753 119.186 182.711C112.62 190.068 106.345 198.272 98.9934 205.624C86.7729 219.012 74.1247 231.809 51.6142 223.661L51.2489 223.779C51.2397 223.348 51.4918 223.699 51.6347 223.725C54.9317 223.361 58.0668 223.028 61.2878 222.125ZM13.2934 108.509C23.2325 104.121 32.2698 97.6587 39.3905 89.2625C41.4922 86.9527 45.4733 81.0234 50.1179 76.9568C54.6335 72.9051 59.2236 70.6912 61.368 74.6833C62.1376 77.2163 62.2476 79.9672 62.0173 82.8868C61.8582 84.3689 61.7694 85.8061 61.6546 87.2632C61.5214 88.7253 61.338 90.2166 61.1451 91.72C60.7189 93.8128 59.8274 95.7852 58.637 97.6592C57.4754 99.5109 56.0726 101.22 54.4557 102.887C51.2434 106.214 47.3574 109.23 44.1004 112.192C38.5023 117.423 33.6355 123.688 25.619 124.113C21.6203 124.526 17.3494 124.602 13.3886 124.134C9.36321 123.706 5.28205 122.969 1.15136 122.11L1.25761 122.192C11.4373 120.35 20.35 117.841 28.0987 113.282C35.8552 108.754 42.4824 102.117 48.3559 92.9578C40.1606 102.189 30.0955 110.832 18.8044 115.851C7.56751 120.846 -5.37447 122.301 -17.9869 116.54L-17.9662 116.44L-17.9077 116.569C-7.50943 115.277 3.37022 112.942 13.2934 108.509ZM-2.29207 222.51L-2.23969 222.385C-6.53881 217.715 -11.4033 214.483 -16.3769 211.171C-21.1375 207.694 -25.8916 204.029 -30.0028 198.965C-32.4316 196.152 -35.2273 189.893 -37.3874 183.749C-38.5186 180.705 -39.2064 177.498 -39.6907 174.758C-40.1643 172.015 -40.3534 169.692 -40.1688 168.177C-36.3781 152.067 -35.8803 134.319 -36.5418 116.94C-35.6155 116.963 -35.5437 118.638 -35.122 119.611L-30.2703 131.313C-28.6569 135.217 -26.6485 138.909 -24.8447 142.713L-22.2621 148.125L-19.4694 153.409C-17.5896 156.919 -15.8172 160.516 -13.8129 163.958C-13.0982 165.099 -13.0425 166.274 -12.9186 167.467C-12.6923 171.901 -12.4415 176.406 -12.1022 180.992C-11.7032 185.538 -10.998 189.987 -10.2425 194.62C-9.85205 196.919 -9.42053 199.247 -8.94058 201.59C-8.47296 203.947 -7.77021 206.161 -7.10948 208.481C-5.73742 213.075 -4.14862 217.773 -2.20657 222.481L-2.29207 222.51ZM68.4951 250.397C73.6835 252.602 77.5176 258.13 81.897 261.581C89.6484 269.196 99.13 274.853 109.463 278.96C120.514 283.307 130.679 288.366 140.48 294.576C142.292 295.486 144.527 297.508 146.749 297.113C143.612 295.303 140.453 293.478 137.275 291.638C134.137 289.655 130.988 287.727 127.797 285.926C121.378 282.535 114.971 278.666 107.965 276.124C99.3214 272.119 90.8147 266.955 85.0019 260.072C88.5725 261.552 92.1467 265.131 95.8997 266.889C99.0695 268.65 102.331 270.279 105.641 271.838C108.962 273.36 112.416 274.464 115.839 275.752C122.672 278.447 129.722 280.15 136.626 282.682C142.44 284.513 147.955 286.673 153.119 289.786C158.279 292.907 164.087 295.053 169.895 297.494C175.712 299.737 181.553 301.716 186.923 304.745C192.12 307.453 195.047 309.551 194.777 311.227C194.516 312.779 191.02 313.95 183.643 312.918C177.494 311.595 171.338 311.571 164.997 311.408C160.22 311.283 155.591 310.841 151.182 309.539C146.776 308.234 142.568 306.536 138.558 304.606C136.546 303.69 134.601 302.545 132.71 301.343C130.814 300.16 128.964 298.936 127.159 297.701C123.555 295.185 120.092 292.813 116.833 290.024C111.547 284.466 103.505 283.194 97.2854 278.559C94.3854 276.594 91.6992 274.525 89.1874 272.28C86.7197 269.896 84.3943 267.445 82.1202 265.007C79.8664 262.519 77.5826 260.257 75.3929 257.683C73.1925 255.145 70.9444 252.686 68.5325 250.368L68.4951 250.397ZM-50.1439 231.972C-50.9724 227.876 -51.6889 223.825 -52.2333 219.858C-53.2869 211.891 -53.273 203.984 -52.4124 196.891C-52.1997 194.77 -51.962 192.668 -51.8006 190.535C-51.5948 188.377 -51.4116 186.152 -51.4155 183.86L-51.2863 183.925L-51.414 183.949C-50.4092 185.505 -49.7133 187.126 -49.1628 188.738C-48.5729 190.323 -48.1871 191.934 -47.9295 193.556C-47.4156 196.789 -47.4041 200.044 -47.3071 203.059C-47.3314 206.61 -47.1014 210.481 -46.3159 214.201C-45.5801 217.965 -44.6201 221.818 -43.6499 225.687C-41.2071 234.97 -38.213 243.738 -35.7559 252.831C-34.5657 257.405 -33.1255 261.738 -31.8489 266.18C-30.5571 270.604 -29.3323 275.053 -28.1757 279.516C-27.5957 281.443 -26.8807 283.741 -28.6222 284.122C-33.2849 283.866 -39.2548 275.238 -42.7086 270.818C-47.3455 264.048 -51.3625 256.729 -55.0754 249.588C-58.5704 242.284 -61.3455 234.815 -63.5086 227.696C-67.3689 213.116 -68.237 199.598 -64.3662 188.585C-61.7607 179.636 -58.7141 171.518 -55.1452 163.25C-54.886 161.907 -54.1169 162.371 -54.1903 163.871C-54.2448 165.202 -54.1783 166.585 -54.0592 167.989C-53.9007 169.366 -53.6567 170.749 -53.4419 172.14C-53.0066 174.917 -52.6217 177.676 -52.8326 180.242C-53.0314 183.791 -53.4581 187.225 -53.911 190.664C-54.3265 194.075 -54.6519 197.412 -54.8646 200.92C-54.9863 204.216 -55.0427 207.632 -54.9531 211.151C-54.8627 214.665 -54.6809 218.324 -54.0512 221.906C-53.4755 225.525 -52.6717 229.226 -51.5724 232.981C-50.4328 236.705 -49.1759 240.621 -47.1834 244.269L-47.2573 244.256C-48.4611 240.276 -49.2837 236.044 -50.1439 231.972ZM45.4635 115.08C46.0965 114.267 46.761 114.426 47.4837 114.602C47.745 114.828 50.0443 115.244 51.8671 115.35C53.7698 115.4 55.1712 115.202 53.5345 114.533C52.5978 114.071 46.2348 114.127 48.0363 112.298C49.8651 110.914 52.582 106.291 54.6529 106.709C55.5348 106.968 57.3873 107.569 59.5431 108.355C61.6722 109.165 64.4311 109.885 66.7132 110.836C69.0738 111.722 70.969 112.863 72.3009 113.848C73.5966 114.869 74.0224 116.059 73.025 117.441C69.1995 119.92 65.4046 122.513 60.995 123.27C57.22 124.102 53.7959 123.718 50.1687 123.19C46.6028 122.609 42.8417 121.85 39.2714 121.184L39.3913 121.261C41.3608 119.133 43.6786 117.39 45.4635 115.08ZM-10.3611 80.6888C-5.87297 82.8521 -1.27312 84.2142 3.25716 85.4043C7.7571 86.5614 12.1322 88.0173 16.3131 89.5806C18.3584 90.376 20.4185 91.1741 22.4855 91.9763C24.5785 92.7254 26.6756 93.4808 28.7756 94.234C29.9287 94.6885 29.9757 94.8921 29.0793 95.7866C26.3841 97.7411 23.6805 102.867 20.0536 101.341C11.6084 97.0045 3.36197 92.4483 -5.51016 87.9567C-13.9335 83.316 -23.1001 78.7461 -31.7778 73.8833C-32.006 74.0643 -32.0727 73.6126 -31.7963 73.9541C-24.4647 74.7256 -17.414 77.5999 -10.3611 80.6888ZM-40.1318 111.685L-40.0437 111.786C-40.3376 114.952 -40.787 118.239 -41.0629 121.452C-41.3196 124.656 -41.6313 127.888 -42.0256 131.113C-42.419 134.332 -42.8901 137.546 -43.4695 140.707C-43.9301 143.805 -44.4971 146.853 -45.2146 149.81C-46.0069 148.663 -46.5632 146.257 -46.8901 143.81C-47.2134 141.355 -47.1287 138.769 -47.0161 137.374C-46.2913 132.869 -45.5317 128.205 -44.5097 123.841C-43.509 119.485 -41.8945 115.271 -40.0504 111.862L-40.1318 111.685ZM-41.8743 165.699L-42.0102 165.644C-42.6245 161.457 -45.0538 156.51 -44.2063 152.634C-42.7506 148.594 -41.9672 144.184 -41.3448 139.767C-40.5465 135.261 -39.8783 130.729 -38.8882 126.554C-38.7555 129.829 -38.7638 133.179 -38.9008 136.558C-39.0513 139.943 -39.057 143.211 -39.3336 146.542C-39.7826 153.139 -40.9058 159.787 -42.0355 165.578L-41.8743 165.699ZM129.392 256.227C127.017 256.938 124.647 257.254 122.21 257.466C119.777 257.666 117.291 257.686 114.772 257.445C115.745 256.364 117.955 256.656 119.363 256.086C127.184 254.166 134.725 251.234 143.011 251.913L143.269 251.657C143.216 251.788 143.1 251.83 142.96 251.868C138.615 253.285 134.117 254.939 129.392 256.227ZM74.0961 259.851C81.7716 267.105 88.7107 275.676 98.0515 281.833C110.74 292.374 119.638 305.249 131.139 316.492L131.463 316.293C128.295 311.323 124.461 306.68 120.496 302.202C116.528 297.738 112.506 292.915 108.806 288.398C112.314 289.757 115.417 291.692 118.447 293.782C121.484 295.805 124.493 297.738 127.694 299.513C144.364 308.822 155.021 322.037 165.73 334.591C167.634 337.358 169.51 340.236 171.762 342.866C174.013 345.44 176.642 347.858 180.061 349.907C184.744 352.809 189.467 355.872 193.539 359.105C195.984 360.635 196.097 361.653 194.791 362.3C193.485 362.988 190.767 363.169 187.621 362.997C181.318 362.721 173.387 361.302 171.474 360.47C163.438 357.886 156.666 354.233 150.906 350.094C145.151 345.659 140.399 340.675 136.295 335.634C122.009 318.75 100.964 304.82 90.2903 285.64C88.9787 283.464 87.6135 281.438 86.2987 279.218C84.9723 277.04 83.6417 274.855 82.3059 272.656C79.6396 268.272 76.8302 264.239 74.1525 259.831C73.5232 259.56 73.9164 259.181 73.6453 258.887L73.7182 259.037C73.9322 259.291 74.1697 259.54 74.0961 259.851ZM-9.92684 174.797C-9.92158 175.123 -9.91794 175.458 -9.91722 175.797C-9.74392 176.1 -9.68397 176.383 -9.88269 176.602L-9.02561 180.286L-8.00939 183.875C-7.32661 186.282 -6.6188 188.708 -5.85473 191.146C-5.0771 193.579 -4.27862 196.057 -3.30338 198.474C-2.26519 200.827 -1.12019 203.179 0.163662 205.517C1.42709 207.513 2.62258 211.514 4.26128 212.807C2.20322 207.394 0.114056 201.887 -1.96854 196.403C-3.733 190.796 -5.3156 185.275 -6.36977 179.89L-6.27938 179.863L-6.35635 179.983C-5.98677 180.328 -5.55222 180.646 -5.59625 181.24C2.80847 199.905 10.9133 219.098 21.3163 237.588C22.571 239.935 23.9391 242.236 25.4157 244.491C26.9545 246.656 28.6644 248.698 30.4531 250.721C34.0661 254.703 37.9657 258.699 42.639 261.759C45.6444 263.844 48.6279 265.989 51.5752 268.204C54.5179 270.432 57.5897 272.335 60.518 274.541C63.4811 276.655 66.3374 279.016 69.2321 281.177C72.1413 283.295 74.9867 285.513 77.7567 287.842C79.4458 289.251 81.0284 290.709 82.5094 292.218C84.0008 293.676 85.4171 295.08 86.7034 296.603C89.281 299.616 91.4199 302.86 93.0722 306.334C96.069 311.934 91.9188 311.772 86.202 309.885C83.3597 308.92 80.1329 307.64 77.3142 306.262C74.5074 304.822 72.0584 303.511 70.6322 302.905C67.3883 301.262 64.1354 299.613 60.8776 297.962C57.6977 296.086 54.5302 294.196 51.4018 292.267C48.2952 290.278 45.1263 288.512 42.2054 286.224C39.2561 284.006 36.3722 281.742 33.5808 279.421C22.4612 270.067 13.3466 258.797 8.12085 246.142C5.43422 240.796 3.61253 235.003 2.09929 229.507C-0.647241 220.826 -3.53422 211.58 -6.11094 202.8C-7.35181 198.374 -8.21289 193.786 -8.92768 189.447C-9.59968 185.061 -10.0884 180.881 -9.82359 176.613C-10.1086 176.278 -10.0905 176.015 -9.84415 175.815C-10.0314 175.471 -10.0214 175.162 -9.91582 174.874L-9.92684 174.797ZM-51.1296 150.211C-51.248 150.011 -51.3447 150.128 -51.1696 150.355L-51.2471 151.327C-51.0135 151.683 -51.0262 151.961 -51.2069 152.194C-50.9803 152.579 -50.9816 152.881 -51.1959 153.103C-50.9701 153.46 -50.9328 153.774 -51.1017 154.046C-50.3523 156.971 -50.0276 161.244 -49.4494 165.435C-48.7046 169.516 -47.7219 173.516 -46.0129 175.841C-45.6999 175.848 -45.9757 174.9 -46.1515 174.335C-47.3108 170.541 -48.0837 166.92 -48.3757 163.284C-48.6261 159.626 -48.5973 156.062 -48.4795 152.562C-48.2798 147.342 -46.5637 155.056 -44.2979 164.353C-41.8227 173.494 -38.8834 184.491 -38.2143 185.371C-36.1656 191.252 -33.9396 195.6 -31.625 198.985C-29.1279 202.239 -26.5734 204.57 -23.9517 206.646C-21.2839 208.687 -18.7306 210.632 -15.7347 212.73C-12.7692 214.861 -9.67626 217.41 -6.34343 221.091C-4.1624 223.395 -2.36655 225.634 -0.93242 228.016C0.495946 230.402 1.57372 232.909 2.53311 235.493C3.51141 238.053 4.28656 240.779 5.30551 243.355C6.33393 245.919 7.46171 248.495 8.90057 251.01C9.32772 251.865 10.4109 252.999 9.77376 253.561C6.93845 252.567 4.16758 251.321 1.46645 249.871C-1.28322 248.472 -3.66899 246.556 -6.14761 244.652C-11.0164 240.746 -15.7366 236.34 -19.7483 231.189C-23.8537 226.12 -27.8899 220.899 -31.3229 215.269C-34.8538 209.714 -38.4551 204.303 -41.6394 198.767C-43.7539 195.137 -45.5713 191.405 -47.0921 187.656C-48.5052 183.832 -49.5197 179.922 -50.3129 176.105C-51.058 172.255 -51.6686 168.55 -51.7459 164.805C-51.8311 161.062 -51.6588 157.439 -51.2552 153.991C-51.4086 153.592 -51.3897 153.29 -51.1364 153.127C-51.3889 152.73 -51.3638 152.438 -51.1416 152.214C-51.3514 151.869 -51.3575 151.582 -51.1818 151.347L-51.2013 150.346C-51.0234 150.049 -50.8931 150.598 -51.1296 150.211ZM-30.0984 79.0106C-25.7535 80.3016 -21.1726 81.9652 -16.9438 83.9383C-12.6138 85.8805 -8.66274 88.1575 -4.43054 90.3538C-0.204113 92.5545 3.89942 94.8126 7.87946 96.9685C11.9409 99.0898 16.1694 100.983 20.1288 102.685C15.8146 105.292 10.7655 106.563 6.16417 108.621C5.41077 108.92 4.66949 108.816 3.88498 108.5C-9.36708 103.074 -19.4994 90.6244 -30.0786 78.9483L-30.8292 78.7566L-30.806 78.64L-30.7594 78.7969C-30.5074 78.6257 -30.2703 78.6167 -30.0984 79.0106ZM8.64952 125.48L8.7476 125.55C8.94716 125.326 9.15896 125.397 9.37109 125.548C13.6706 125.859 18.4613 126.58 22.9526 126.634C27.4694 126.687 31.7876 125.995 35.7181 123.444C37.6935 122.045 39.5568 122.054 41.49 122.56C46.8138 124.351 52.3246 125.541 57.7388 125.183C63.3281 124.676 68.6555 122.739 73.5795 118.88C76.8699 116.649 74.8146 113.453 73.1678 112.082C69.2752 108.058 62.5219 107.347 57.106 104.551C56.2508 104.2 56.0645 103.883 56.8466 103.072C62.7177 96.8169 63.2091 89.1149 63.2133 82.7392C63.559 79.8762 63.4741 76.2453 62.1595 73.8603C61.0808 71.3919 58.6206 70.1034 53.8961 72.106C45.3105 76.5075 39.1019 84.5285 32.9816 91.7524C32.3446 92.4606 31.8924 92.9415 30.8819 92.4334C29.1653 91.5769 27.3562 90.8108 25.5918 90.0665C23.8825 89.2937 22.1308 88.582 20.34 87.9098C16.7576 86.5708 13.025 85.3995 9.19581 84.2793C1.76839 81.9547 -5.89055 79.7993 -13.6634 76.8761C-18.3425 74.6863 -23.1618 73.1222 -28.1804 72.1069C-31.0481 71.354 -34.6276 71.1227 -37.9007 70.0433C-39.5368 69.501 -41.0995 68.7467 -42.4554 67.607C-43.7275 66.4496 -44.7792 64.9009 -45.469 62.8C-46.0074 59.397 -46.5851 55.9868 -47.3273 52.6236C-48.1117 48.7005 -48.6582 44.6971 -49.3291 40.6957C-49.6387 38.6915 -50.0111 36.6841 -50.2887 34.6692L-50.959 28.6075C-51.3879 24.5651 -52.1158 20.5231 -52.5641 16.4909C-52.9918 12.4569 -53.5518 8.42629 -54.3049 4.39899C-54.6809 2.08872 -56.1823 0.172512 -57.845 0.944016C-61.2995 2.77948 -58.4302 11.7471 -58.7981 16.0099C-57.0664 45.0675 -51.0868 73.2007 -42.1884 99.8321C-41.6894 101.497 -41.5363 102.926 -41.9804 104.351C-43.2023 108.06 -44.4114 111.735 -45.6217 115.403C-46.8329 119.108 -48.1967 122.931 -49.1442 126.701C-50.1625 130.502 -51.1103 134.404 -51.9117 138.456C-52.7217 142.514 -53.3988 146.729 -53.5802 150.998C-55.2928 157.852 -58.1321 163.868 -60.9986 169.962C-63.891 176.075 -66.4768 182.075 -67.971 189.3C-68.6888 192.145 -69.1817 195.14 -69.4571 198.269C-69.5962 199.834 -69.6824 201.434 -69.7149 203.062C-69.6992 204.659 -69.6248 206.285 -69.5008 207.934C-68.9841 214.528 -67.7366 221.621 -65.6693 228.819C-63.4125 235.889 -60.5411 243.228 -57.0744 250.469C-53.3502 257.521 -49.2672 264.676 -44.682 271.421C-42.5658 274.517 -37.9676 279.986 -33.803 283.401C-29.6943 286.883 -25.8117 287.985 -25.731 283.206C-26.4466 278.35 -28.8022 272.748 -29.7847 267.751C-30.6917 262.055 -32.4768 256.483 -34.0435 250.483C-35.704 244.565 -37.6199 238.628 -39.4305 232.78C-42.6114 220.728 -45.5384 209.129 -44.7156 198.476C-42.66 201.375 -40.8681 204.374 -38.9023 207.183C-36.9336 209.989 -35.0453 212.792 -33.1822 215.576C-31.2844 218.334 -29.5746 221.208 -27.5587 223.809C-25.5745 226.434 -23.5775 229.025 -21.525 231.569C-19.4363 234.076 -17.4393 236.668 -15.0799 238.932C-12.7456 241.212 -10.3184 243.415 -7.7591 245.501C-5.16279 247.546 -2.60398 249.651 0.407409 251.29C3.37971 252.969 6.51041 254.492 9.81885 255.817C11.4054 256.548 12.4216 257.362 13.3639 258.995C15.6607 263.001 18.5534 266.58 21.5642 270.247C24.6157 273.863 27.8854 277.461 31.6448 280.483C48.193 294.576 67.518 305.682 87.8451 312.031C97.5103 314.466 96.4188 309.012 92.3422 302.533C90.3022 299.288 87.5291 295.772 84.8479 292.806C82.1601 289.85 79.6594 287.059 77.8612 285.88C74.4308 282.909 70.758 280.422 67.1503 277.664C63.554 274.863 59.8915 272.18 56.2737 269.486C40.0416 258.53 27.678 243.873 18.2455 228.221C15.8351 224.359 13.7859 220.195 11.6554 216.244L8.54737 210.282L5.77657 204.107C3.9803 199.978 2.05146 196.05 0.380881 191.927C-1.26009 187.777 -2.92376 183.691 -4.65612 179.672L-4.53898 179.652L-4.69477 179.692C-0.260929 184.653 3.51657 190.399 7.98372 195.602C10.1428 198.276 12.3052 200.961 14.4615 203.636C16.7815 206.138 19.1319 208.607 21.519 210.987C23.2533 212.921 24.9274 214.981 26.864 216.754C28.8026 218.53 30.7523 220.317 32.709 222.107C34.697 223.859 36.6261 225.713 38.6729 227.396C40.7416 229.053 42.8102 230.71 44.8719 232.362C46.9203 234.035 48.9206 235.773 50.9091 237.505C52.9712 239.106 54.9918 240.763 56.9477 242.492C58.9037 244.222 60.8021 246.029 62.6247 247.932C64.4696 249.79 66.3351 251.548 68.0623 253.543C74.8756 264.605 80.7428 275.429 86.6569 286.8C89.9092 292.175 93.6734 297.484 98.0465 302.657C102.461 307.628 107.529 312.226 113.272 316.698C119.331 321.002 124.443 325.482 129.125 330.444C131.408 332.89 133.678 335.317 135.944 337.743C138.168 340.198 140.39 342.643 142.61 345.091C149.023 351.811 157.054 357.131 167.205 361.171C171.097 362.816 175.185 363.676 179.443 364.187C183.707 364.661 188.14 364.666 192.702 363.955C201.548 362.673 195.174 358.735 192.372 356.351C186.123 350.535 176.146 346.699 172.394 339.904C168.398 332.959 165.342 328.048 161.456 323.684C157.597 319.281 152.89 315.443 146.178 309.457C146.385 309.105 146.931 309.342 147.354 309.49C153.895 311.892 160.813 312.556 167.773 313.35C171.254 313.794 174.758 313.792 178.264 313.897C181.771 313.992 185.276 314.097 188.781 314.287C197.757 313.817 197.434 310.643 194.154 307.518C192.515 305.901 190.159 304.414 187.824 302.907C185.482 301.428 183.169 300.219 181.56 299.632C176.172 297.247 170.776 295.122 165.384 292.607C159.992 290.211 154.592 288.159 149.245 285.592C145.253 283.709 141.166 282.388 137.077 280.838C132.992 279.257 128.86 277.867 124.713 276.546C120.575 275.161 116.493 273.465 112.425 271.927C108.336 270.452 104.407 268.473 100.6 266.382C93.4263 262.633 87.1321 257.383 80.2212 253.314C79.8034 253.068 79.0625 252.7 79.2622 252.376C79.5401 251.94 80.2936 252.374 80.7958 252.551C84.9854 253.52 88.9169 254.617 92.6638 255.843C94.5191 256.508 96.3903 257.005 98.2244 257.545C100.053 258.09 101.845 258.671 103.607 259.281C110.59 261.958 117.366 264.071 123.986 267.076C127.33 268.402 130.699 269.633 134.09 271.058C135.791 271.772 137.499 272.489 139.218 273.212C140.942 273.926 142.705 274.484 144.476 275.152C148.058 276.458 151.7 277.789 155.428 279.152C159.208 280.282 163.121 281.398 167.202 282.517C168.93 283.022 170.667 283.566 172.42 283.91C174.171 284.231 175.932 284.508 177.707 284.746C181.249 285.218 184.827 285.545 188.419 285.729C192.001 285.694 195.6 285.539 199.203 285.296L204.611 284.882C206.408 284.647 208.196 284.324 209.987 284.032L220.736 282.112C224.293 281.298 227.826 280.328 231.376 279.464L236.703 278.167C238.478 277.745 240.214 277.125 241.98 276.636C245.497 275.603 249.03 274.633 252.594 273.757C255.763 273.271 261.772 270.78 268.404 267.619C271.686 265.944 275.012 263.78 278.238 261.689C281.453 259.568 284.536 257.418 287.04 254.981C292.13 250.292 295.521 246.014 295.283 243.352C295.059 240.679 291.189 239.643 282.21 241.066C280.572 241.399 278.95 241.777 277.342 242.196L272.417 243.253C269.143 243.995 265.911 244.854 262.706 245.763C259.482 246.621 256.164 247.217 252.937 247.965C249.683 248.639 246.509 249.482 243.213 249.741C239.628 250.056 236.065 250.498 232.522 251.042C228.967 251.522 225.352 251.759 221.809 252.243L216.499 252.939C214.721 253.066 212.945 253.196 211.177 253.324C207.644 253.56 204.165 253.919 200.721 254.072C214.838 249.095 231.055 244.204 237.747 230.491C238.726 228.136 241.779 223.356 243.029 219.63C244.302 215.9 243.839 213.14 238.325 214.266C235.757 214.782 233.138 215.187 230.627 215.941C228.11 216.681 225.669 217.682 223.276 218.867C220.826 219.847 218.432 221.037 216.086 222.388C213.737 223.713 211.467 225.344 209.158 226.671C205.964 228.724 202.657 230.718 199.254 232.664C195.814 234.357 192.272 235.94 188.651 237.523L185.922 238.699L183.151 239.645L177.529 241.504C175.636 242.11 173.724 242.753 171.801 243.313L165.986 244.685L166.031 244.674C169.347 242.179 172.713 239.805 176.093 237.124C179.474 234.522 182.875 232.15 186.255 229.705C189.625 227.106 192.985 224.652 196.327 222.387C199.664 220.082 202.921 217.51 206.193 215.416C217.622 207.859 229.097 199.539 232.812 185.693C236.202 176.683 231.931 172.307 224.875 173.613C224.245 173.751 223.629 173.916 223.026 174.114C222.402 174.262 221.776 174.411 221.174 174.604C219.957 174.984 218.786 175.474 217.644 176.06C215.366 177.25 213.21 178.849 210.959 180.291C208.744 181.833 206.568 183.627 204.37 185.493C202.073 187.168 199.785 188.832 197.537 190.469C194.358 192.816 191.259 194.922 188.266 197.625C185.245 200.418 182.267 203.17 179.299 205.918L174.74 210.295L172.414 212.547L170.047 214.611C166.86 217.369 163.54 220.144 160.008 222.778C154.906 226.228 149.747 229.907 144.564 233.783C139.429 237.373 134.254 241.266 129.072 245.479C124.906 248.386 120.305 251.177 115.155 253.067C112.566 254.074 109.904 254.625 107.117 254.821C104.327 255.038 101.406 254.924 98.3754 254.386C97.1637 254.602 96.7113 253.55 98.0568 253.418C102.835 252.052 107.139 250.11 111.034 247.676C113.522 246.893 116.041 245.813 118.494 244.765C120.948 243.712 123.357 242.637 125.706 241.537C130.384 239.476 134.977 236.686 139.283 234.005C141.534 232.723 143.588 231.245 145.52 229.668C147.469 227.984 149.298 226.153 151.075 224.339C154.63 220.634 157.962 217.139 161.686 213.811C166.446 209.538 170.411 205.004 174.069 199.977C177.539 195.073 181.002 190.184 184.555 185.163C188.176 179.96 190.119 173.835 191.071 167.283C191.813 162.13 190.177 159.791 187.976 159.115C185.752 158.378 182.879 159.619 180.742 160.864C178.03 162.06 175.558 163.904 173.168 166.172C170.778 168.24 168.477 170.623 166.145 173.29L162.618 177.387L159.008 181.304C156.549 183.936 153.967 186.565 151.174 188.971C146.275 192.717 141.851 197.601 137.876 203.361C134.331 208.733 130.025 213.375 125.701 218.28C123.544 220.722 121.392 223.207 119.374 225.829C117.383 228.367 115.524 231.026 113.934 233.97C109.798 241.124 104.731 245.452 98.9153 247.709C93.1807 249.739 86.7738 249.524 80.0851 247.908C66.7835 244.269 53.0319 234.244 40.5943 224.224C37.2588 221.8 38.9467 221.226 41.4541 222.619C46.255 224.644 51.1059 226.25 55.8225 227.301C60.6721 228.131 65.4574 228.283 69.8915 227.873C74.2803 227.559 78.6441 226.051 82.4315 224.128C86.2506 222.148 89.6258 219.485 92.501 216.093C100.397 207.008 108.293 197.929 116.358 188.658C122.635 181.111 128.639 172.171 130.671 161.939C130.828 158.671 130.017 157.289 128.581 157.091C127.153 156.872 125.214 157.561 122.934 158.846C120.674 160.102 118.128 161.815 115.792 163.318C113.548 164.671 111.519 165.823 110.281 166.21C108.175 167.127 106.093 168.316 104.041 169.698C103.017 170.391 102 171.129 100.99 171.909C100.005 172.656 99.0435 173.412 98.0762 174.225C94.2256 177.453 90.4951 181.246 86.948 185.081C80.8642 191.238 72.0473 202.171 61.9704 209.422C56.9 213.098 51.4291 215.96 45.7386 217.053C40.1551 218.012 34.516 216.93 29.0659 213.342C17.4356 201.598 7.00952 188.642 -2.17183 174.8C-11.1233 160.766 -18.8461 145.967 -25.4554 130.637L-31.0692 116.5C-31.3042 115.957 -31.7681 115.29 -31.4663 114.798C-31.0504 114.11 -30.4229 114.801 -29.9431 115.056C-26.5005 116.757 -23.2388 118.823 -20.3352 121.679C-19.0602 123.046 -17.8131 124.429 -16.5902 125.822C-15.3008 127.178 -14.0085 128.531 -12.7121 129.891C-10.1398 132.612 -7.68262 135.389 -5.22871 138.155C0.0787804 143.429 4.8374 149.023 10.3151 153.902C15.4486 159.057 21.1673 163.51 26.6879 167.754C29.5274 169.798 32.5444 171.565 35.4471 173.316C36.9119 174.179 38.3718 175.007 39.8337 175.807C41.3714 176.51 42.9158 177.17 44.4532 177.793C46.1201 178.349 49.6992 179.987 54.1046 181.476C58.6721 182.736 63.777 184.24 68.5471 184.652C78.2638 185.336 85.2656 183.319 82.1599 175.531C80.8708 173.7 79.3449 172.269 77.6367 171.081C75.8967 169.951 74.2145 168.645 72.3025 167.676C70.4215 166.655 68.4405 165.739 66.457 164.807C64.5583 163.752 62.7178 162.601 60.9603 161.372C56.0402 158.531 52.096 154.937 48.1199 151.743C46.0684 150.205 44.3825 148.351 42.5171 146.739C40.683 145.09 38.8283 143.507 36.8975 142.008C33.355 138.714 29.3731 135.868 24.9153 133.15C22.7527 131.74 20.405 130.412 17.8104 129.156C15.2244 127.894 12.3105 126.754 9.38274 125.474C9.16087 125.777 8.91177 125.635 8.64952 125.48ZM-47.1044 245.262C-46.84 245.044 -46.7984 244.743 -47.2573 244.256C-47.0489 244.415 -47.1233 244.976 -47.0227 245.274L-47.1044 245.262ZM-47.1073 245.264C-47.1246 245.588 -46.6876 245.613 -47.0227 245.274L-47.1073 245.264ZM132.047 317.492C132.212 317.036 132.057 316.629 131.463 316.293L131.142 316.489C131.294 316.894 131.427 317.308 132.108 317.459L132.047 317.492ZM133.772 319.015C133.408 318.388 133.155 317.699 132.047 317.492L132.108 317.459C132.151 318.179 132.675 318.738 133.479 319.204L133.772 319.015ZM133.772 319.015C135.905 319.879 134.15 320.839 133.479 319.204L133.772 319.015Z" />
</g>
</svg>
