<svg width="50" height="58" viewBox="0 0 50 58" fill="none" xmlns="http://www.w3.org/2000/svg">
<path d="M0.192703 25.7194C0.0642343 25.5905 0 25.3971 0 25.1393C0 24.7783 0.0642343 24.5978 0.192703 24.5978C0.44964 24.5978 0.783659 24.5591 1.19476 24.4818C1.60586 24.4044 2.00411 24.3013 2.38952 24.1724C2.77492 24.0435 3.04471 23.9017 3.19887 23.747C3.63566 23.2828 3.86691 22.1612 3.8926 20.3822C3.94399 17.3912 3.99538 14.7097 4.04676 12.3376C4.12384 9.93969 4.18808 7.98011 4.23947 6.45886C4.29085 4.91183 4.31655 3.91915 4.31655 3.48082C4.31655 2.78466 4.26516 2.26898 4.16238 1.93379C4.111 1.77909 3.87975 1.65017 3.46865 1.54703C3.08325 1.41811 2.6593 1.31498 2.19681 1.23763C1.73433 1.16027 1.37461 1.1216 1.11768 1.1216C1.0149 1.1216 0.963515 0.941112 0.963515 0.580137C0.963515 0.296515 1.0149 0.103136 1.11768 0C1.73433 0.0257839 2.41521 0.0644597 3.16033 0.116027C3.90545 0.167595 4.66341 0.193379 5.43422 0.193379C5.92241 0.193379 6.44913 0.180487 7.01439 0.154703C7.60534 0.103136 8.26053 0.0515678 8.97996 0C9.18551 0.567245 11.7292 7.02611 16.611 19.3766C16.6624 19.4282 16.7138 19.4539 16.7652 19.4539C16.8679 19.4539 16.9322 19.4024 16.9579 19.2992C18.2169 16.3341 19.3474 13.6268 20.3494 11.1773C21.3515 8.72784 22.2251 6.54911 22.9702 4.6411L24.5118 0C25.334 0.0515678 26.0021 0.0902436 26.5159 0.116027C27.0555 0.141811 27.4538 0.154703 27.7107 0.154703C28.5072 0.154703 29.2652 0.141811 29.9846 0.116027C30.704 0.0902436 31.3849 0.0515678 32.0272 0C32.1043 0.232055 32.1429 0.425434 32.1429 0.580137C32.1429 0.941112 32.0786 1.1216 31.9502 1.1216H31.8731C31.5904 1.1216 31.2179 1.21184 30.7554 1.39233C30.2929 1.54703 29.946 1.71463 29.7148 1.89512C29.4065 2.12717 29.2523 2.99093 29.2523 4.4864L29.5992 20.1888C29.6506 21.6842 29.8433 22.8703 30.1773 23.747C30.2544 23.9017 30.4599 24.0435 30.7939 24.1724C31.128 24.3013 31.4877 24.4044 31.8731 24.4818C32.2842 24.5591 32.5797 24.5978 32.7595 24.5978C32.8623 24.5978 32.9137 24.7783 32.9137 25.1393C32.9137 25.3198 32.888 25.5132 32.8366 25.7194C31.5519 25.6679 30.5242 25.6292 29.7533 25.6034C29.0082 25.5518 28.5072 25.526 28.2503 25.526L23.6254 25.7194C23.5226 25.6163 23.4712 25.41 23.4712 25.1006C23.4712 24.7654 23.5226 24.5978 23.6254 24.5978C23.8823 24.5978 24.2677 24.5334 24.7816 24.4044C25.3212 24.2755 25.7066 24.1466 25.9378 24.0177C26.2461 23.8114 26.4003 23.2571 26.4003 22.3546V20.3048L25.9378 6.69092C25.9378 6.4073 25.8993 6.09789 25.8222 5.7627C25.7708 5.40172 25.7066 5.09232 25.6295 4.83448C25.5524 4.55086 25.4625 4.40904 25.3597 4.40904C25.3083 4.40904 25.2441 4.49929 25.167 4.67977L17.112 24.0177C16.6238 25.1264 16.1485 25.6807 15.686 25.6807C15.6603 25.6807 15.5447 25.655 15.3392 25.6034L6.51336 3.09407C6.43628 6.72959 6.34635 9.97836 6.24358 12.8404C6.1408 15.6766 6.05087 17.9585 5.97379 19.686C5.92241 21.4135 5.89671 22.4191 5.89671 22.7027C5.89671 23.1668 5.97379 23.502 6.12795 23.7083C6.23073 23.8372 6.48767 23.979 6.89877 24.1337C7.30987 24.2626 7.73381 24.3787 8.17061 24.4818C8.63309 24.5591 8.94142 24.5978 9.09558 24.5978C9.19836 24.5978 9.24974 24.7912 9.24974 25.178C9.24974 25.3327 9.22405 25.5132 9.17266 25.7194C7.88798 25.6679 6.87307 25.6292 6.12795 25.6034C5.38284 25.5518 4.9075 25.526 4.70195 25.526L0.192703 25.7194Z" fill="#1E3266"/>
<path d="M28.8666 57.7339C24.9386 57.7339 21.8708 56.8104 19.6633 54.9635C17.6831 53.311 16.693 51.1886 16.693 48.5964C16.693 45.7126 17.8941 43.1204 20.2964 40.8199C22.9583 38.2601 26.4644 36.7696 30.8144 36.3484C30.4573 35.8299 30.1489 35.2791 29.8892 34.6959C28.9802 34.6635 28.1037 34.5987 27.2597 34.5014C26.4157 34.3718 25.6203 34.226 24.8737 34.064C22.1792 33.416 20.0854 32.3791 18.592 30.9534C17.2286 29.6249 16.5469 28.183 16.5469 26.6277C16.5469 24.878 17.3909 23.4037 19.079 22.2048C20.7671 21.0707 22.8934 20.5037 25.458 20.5037C26.6916 20.5037 27.9414 20.6495 29.2075 20.9411C30.4736 21.2003 31.7396 21.6377 33.0057 22.2534C33.1031 22.2858 33.1517 22.383 33.1517 22.545C33.1517 22.869 33.0057 22.9662 32.7135 22.8366C30.3437 21.7025 28.0226 21.1355 25.7502 21.1355C23.7374 21.1355 22.1305 21.6377 20.9294 22.6422C19.7283 23.6467 19.1277 24.959 19.1277 26.5791C19.1277 28.0372 19.6633 29.3819 20.7346 30.6132C21.9682 31.9741 23.6401 32.8975 25.7502 33.3836C26.367 33.5132 27 33.6266 27.6493 33.7238C28.2985 33.821 28.964 33.8858 29.6457 33.9182C29.5159 33.3998 29.451 32.8003 29.451 32.1199C29.451 29.8193 30.3762 27.7456 32.2266 25.8986C34.434 23.6953 37.5667 22.2534 41.6246 21.5729C42.0467 21.5081 42.4524 21.4595 42.842 21.4271C43.264 21.3947 43.6698 21.3785 44.0594 21.3785C45.8124 21.3785 47.2408 21.7511 48.3445 22.4964C49.4482 23.2093 50.0001 24.1651 50.0001 25.364C50.0001 27.2433 48.6854 29.1065 46.0558 30.9534C42.7121 33.254 38.0375 34.5014 32.0318 34.6959C32.0642 35.2143 32.1941 35.7165 32.4213 36.2026C32.9732 36.1702 33.5251 36.1702 34.077 36.2026C34.6288 36.2026 35.1807 36.2188 35.7326 36.2512C36.9012 36.3484 37.4856 36.7858 37.4856 37.5635C37.4856 38.3087 36.8525 38.6813 35.5865 38.6813C33.9309 38.6813 32.535 38.1143 31.3988 36.9802C28.4121 37.4663 25.9612 38.973 24.0458 41.5003C22.3253 43.8657 21.465 46.4417 21.465 49.2283C21.465 51.4964 22.0656 53.3272 23.2667 54.7205C24.5653 56.3082 26.4319 57.102 28.8666 57.102C30.4249 57.102 31.9019 56.778 33.2978 56.13C34.6938 55.4819 35.9436 54.6395 37.0473 53.6026C38.1511 52.5657 39.0113 51.4802 39.6281 50.3462C40.2774 49.2121 40.602 48.159 40.602 47.1869C40.602 46.2797 40.2612 45.5344 39.5795 44.9512C38.9302 44.3355 37.8589 44.0277 36.3656 44.0277C35.3592 44.0277 34.2717 44.2707 33.1031 44.7568C31.9669 45.2104 30.8631 45.8098 29.7918 46.5551C28.7205 47.2679 27.7953 48.0132 27.0162 48.7909C26.2371 49.5685 25.7177 50.249 25.458 50.8322C25.3931 51.0266 25.2632 51.0752 25.0684 50.978C24.8737 50.8808 24.8087 50.735 24.8737 50.5406C25.2307 49.6981 25.8151 48.8395 26.6267 47.9646C27.4382 47.0897 28.3959 46.2635 29.4996 45.4858C30.6034 44.7082 31.7883 44.0925 33.0544 43.6389C34.3204 43.1529 35.6027 42.9098 36.9013 42.9098C39.3685 42.9098 41.1539 43.3473 42.2577 44.2221C43.3614 45.097 43.9133 46.1501 43.9133 47.3814C43.9133 48.483 43.5399 49.6333 42.7933 50.8322C42.0466 52.0311 40.9916 53.1652 39.6281 54.2344C38.2972 55.2713 36.7065 56.1138 34.8561 56.7618C33.0381 57.4099 31.0417 57.7339 28.8666 57.7339ZM32.0318 33.8696C37.096 33.6104 41.3325 32.2981 44.7411 29.9327C47.5005 27.9886 48.8801 26.3037 48.8801 24.878C48.8801 23.4199 47.6952 22.6908 45.3254 22.6908C42.1116 22.6908 39.0114 24.0193 36.0247 26.6763C33.5575 28.8472 32.2266 31.245 32.0318 33.8696Z" fill="#1E3266"/>
</svg>
