<svg width="27" height="28" viewBox="0 0 27 28" fill="none" xmlns="http://www.w3.org/2000/svg">
<path d="M13.515 0.850586C6.17364 0.850586 0.197328 6.82175 0.194661 14.1631C0.193328 16.5098 0.807974 18.8007 1.97331 20.8193L0.166016 27.5173L7.14258 25.8688C9.08791 26.9301 11.2778 27.4873 13.5072 27.4886H13.5124C20.8524 27.4886 26.8261 21.5161 26.8301 14.1761C26.8327 10.6174 25.4489 7.27156 22.9342 4.75423C20.4196 2.23823 17.0776 0.851919 13.515 0.850586ZM13.5124 3.51725C16.3604 3.51859 19.0368 4.62898 21.0488 6.63965C23.0608 8.65298 24.1661 11.3282 24.1634 14.1735C24.1607 20.0455 19.3844 24.8219 13.5098 24.8219C11.7324 24.8206 9.97189 24.3743 8.42122 23.5277L7.52279 23.0381L6.5306 23.2725L3.9056 23.8923L4.54622 21.512L4.83529 20.4443L4.2832 19.486C3.35254 17.8753 2.85999 16.0338 2.86133 14.1631C2.86399 8.29375 7.6417 3.51725 13.5124 3.51725ZM8.80143 8.01725C8.57877 8.01725 8.21875 8.10059 7.91341 8.43392C7.60808 8.76592 6.74675 9.57002 6.74675 11.2074C6.74675 12.8447 7.93945 14.4274 8.10612 14.6501C8.27145 14.8714 10.4083 18.3376 13.791 19.6709C16.6017 20.7789 17.1725 20.5602 17.7832 20.5042C18.3939 20.4496 19.7533 19.7008 20.0306 18.9235C20.3079 18.1462 20.3086 17.4775 20.2259 17.3402C20.1432 17.2015 19.9212 17.1188 19.5879 16.9521C19.2559 16.7855 17.6198 15.9821 17.3145 15.8714C17.0091 15.7608 16.7858 15.7048 16.5645 16.0381C16.3431 16.3714 15.707 17.1188 15.5124 17.3402C15.3177 17.5628 15.1243 17.5928 14.791 17.4261C14.4577 17.2581 13.3859 16.9058 12.1139 15.7725C11.1246 14.8911 10.457 13.8037 10.2624 13.4704C10.069 13.1384 10.2441 12.956 10.4108 12.7907C10.5601 12.6414 10.7415 12.402 10.9082 12.2074C11.0735 12.0127 11.1309 11.874 11.2415 11.6527C11.3522 11.4313 11.2956 11.236 11.2129 11.0693C11.1302 10.9027 10.4828 9.25925 10.1868 8.60059C9.93752 8.04725 9.67418 8.0344 9.43685 8.02506C9.24352 8.01706 9.02277 8.01725 8.80143 8.01725Z" fill="white"/>
</svg>
